<?xml version="1.0" encoding="utf-8"?>
<!-- Generator: Adobe Illustrator 16.0.0, SVG Export Plug-In . SVG Version: 6.00 Build 0)  -->
<!DOCTYPE svg PUBLIC "-//W3C//DTD SVG 1.1//EN" "http://www.w3.org/Graphics/SVG/1.1/DTD/svg11.dtd">
<svg version="1.1" id="Layer_1" xmlns="http://www.w3.org/2000/svg" xmlns:xlink="http://www.w3.org/1999/xlink" x="0px" y="0px"
	 width="1024px" height="590px" viewBox="0 0 1024 590" style="enable-background:new 0 0 1024 590;" xml:space="preserve">
<style type="text/css">
<![CDATA[
	.st0{fill:#29B5E7;}
	.st1{fill:#D1D1D1;}
]]>
</style>
<g>
	<path class="st0" d="M244.263,90.329c-1.64-0.679-3.001-1.418-4.133-2.192c0.589,9.55,10.309,12.976,22.458,12.976
		c12.271,0,22.464-3.498,22.894-13.265c-5.248,3.83-14.095,5.614-22.893,5.614C255.646,93.462,249.139,92.35,244.263,90.329z"/>
	<path class="st0" d="M288.761,41.569c-4.572-4.222-10.716-7.321-17.698-8.711c0.087-0.058,0.168-0.116,0.237-0.174
		c1.558-1.323,3.584-7.345,3.584-7.345s-5.637,6.161-8.218,5.37c-1.114-0.34-1.407-7.054-1.407-7.054s-1.905,5.719-2.822,5.87
		c-2.505,0.408-5.359-1.355-5.359-1.355s0.251,1.763,1.534,3.596c0.097,0.138,0.238,0.285,0.41,0.437
		c-8.887,0.763-16.764,4.234-22.322,9.368c-8.865,0.479-15.905,7.817-15.905,16.801c0,7.982,5.56,14.661,13.016,16.389
		c1.342,1.655,2.898,3.188,4.638,4.574c-0.36,0.768-0.671,1.555-0.922,2.362c3.841,4.668,14.696,7.149,25.032,7.149
		c10.657,0,21.868-2.638,25.372-7.592c-0.232-0.682-0.508-1.348-0.818-2c1.699-1.364,3.222-2.869,4.538-4.492
		c7.46-1.726,13.023-8.405,13.023-16.39C304.672,49.386,297.629,42.046,288.761,41.569z M260.763,72.184l-2.625,4.554
		c-0.507,0.879-1.429,1.372-2.375,1.372c-0.464,0-0.935-0.118-1.366-0.367c-1.311-0.754-1.761-2.431-1.005-3.741l2.625-4.554
		c0.756-1.311,2.431-1.761,3.742-1.004C261.069,69.197,261.519,70.874,260.763,72.184z M270.659,77.742
		c-0.431,0.25-0.901,0.367-1.365,0.367c-0.948,0-1.869-0.493-2.375-1.372l-2.626-4.554c-0.755-1.311-0.306-2.985,1.005-3.741
		c1.311-0.756,2.985-0.306,3.741,1.004l2.626,4.554C272.419,75.312,271.97,76.986,270.659,77.742z M285.57,69.298
		c-0.505,1.721-1.19,3.32-2.024,4.755c-4.763-5.115-12.279-8.418-20.745-8.418c-8.518,0-16.077,3.344-20.836,8.511
		c-0.862-1.466-1.567-3.105-2.084-4.874c-5.523-0.564-9.832-5.229-9.832-10.9c0-6.052,4.906-10.958,10.958-10.958
		c0.973,0,1.916,0.129,2.814,0.367c2.481-2.887,5.711-4.639,9.247-4.639c3.735,0,7.13,1.954,9.662,5.141
		c2.531-3.187,5.927-5.141,9.662-5.141c3.566,0,6.822,1.782,9.313,4.716c0.981-0.288,2.018-0.444,3.091-0.444
		c6.052,0,10.958,4.905,10.958,10.957C295.755,64.163,291.261,68.901,285.57,69.298z"/>
	<path class="st0" d="M276.088,52.191c-9.257-1.153-10.896,8.481-10.896,8.481s4.692-2.307,10.043-1.64
		c5.351,0.667,9.334,4.055,9.334,4.055S285.346,53.344,276.088,52.191z"/>
	<path class="st0" d="M249.923,52.11c-9.227,1.376-8.217,11.096-8.217,11.096s3.932-3.274,9.265-4.069
		c5.334-0.794,10.049,1.19,10.049,1.19S259.151,50.735,249.923,52.11z"/>
</g>
<g>
	<g>
		<g>
			<path class="st0" d="M651.723,88.145c-6.205,0-12.032-2.411-16.406-6.786c-4.383-4.382-6.796-10.208-6.796-16.406
				c-0.001-6.197,2.412-12.024,6.795-16.407c4.382-4.382,10.208-6.796,16.406-6.796c6.197,0,12.023,2.414,16.407,6.796
				c2.287,2.288,2.288,6.012,0,8.3c-1.108,1.108-2.582,1.718-4.15,1.718c-1.567,0-3.04-0.609-4.148-1.718
				c-2.167-2.165-5.046-3.358-8.107-3.358c-3.063,0-5.942,1.193-8.108,3.358c-2.165,2.165-3.357,5.044-3.357,8.106
				c0,3.063,1.193,5.943,3.358,8.108c2.162,2.162,5.041,3.352,8.107,3.352s5.944-1.19,8.107-3.352
				c1.108-1.109,2.581-1.719,4.148-1.719c1.568,0,3.042,0.61,4.15,1.719c2.287,2.289,2.287,6.011,0,8.3
				C663.753,85.734,657.926,88.145,651.723,88.145z"/>
		</g>
	</g>
</g>
<g>
	<g>
		<g>
			<g>
				<path class="st0" d="M617.595,87.752c-3.235,0-5.868-2.633-5.868-5.869V46.897c0-3.235,2.633-5.868,5.868-5.868
					c3.236,0,5.869,2.632,5.869,5.868v34.985C623.464,85.119,620.831,87.752,617.595,87.752z"/>
			</g>
		</g>
		<g>
			<g>
				<path class="st0" d="M617.594,34.853c-1.544,0-3.058-0.626-4.149-1.718c-1.093-1.096-1.719-2.608-1.719-4.15
					c0-1.546,0.627-3.059,1.718-4.15c1.093-1.092,2.605-1.718,4.15-1.718c1.547,0,3.06,0.626,4.15,1.718
					c1.092,1.091,1.718,2.603,1.718,4.15c0,1.546-0.627,3.059-1.718,4.15C620.652,34.227,619.14,34.853,617.594,34.853z"/>
			</g>
		</g>
	</g>
</g>
<g>
	<path class="st0" d="M757.609,87.879c-3.235,0-5.868-2.633-5.868-5.868V64.659c0-0.03,0.002-0.061,0.003-0.09
		c-0.001-0.027-0.003-0.057-0.003-0.087c0-6.118-3.754-11.287-8.196-11.287s-8.195,5.168-8.195,11.287V82
		c0,3.236-2.633,5.869-5.868,5.869s-5.868-2.633-5.868-5.869V47.327c0-3.236,2.633-5.868,5.868-5.868
		c1.972,0,3.794,0.996,4.871,2.603c2.833-1.706,5.991-2.603,9.192-2.603c10.991,0,19.934,10.328,19.934,23.023
		c0,0.03-0.002,0.061-0.004,0.091c0.002,0.025,0.004,0.056,0.004,0.086v17.352C763.479,85.246,760.846,87.879,757.609,87.879z"/>
</g>
<g>
	<g>
		<g>
			<g>
				<path class="st0" d="M696.619,87.944c-12.846,0-23.296-10.451-23.296-23.296c0-12.845,10.45-23.296,23.296-23.296
					s23.296,10.451,23.296,23.296C719.915,77.494,709.465,87.944,696.619,87.944z M696.619,53.089
					c-6.374,0-11.56,5.185-11.56,11.559s5.186,11.56,11.56,11.56c6.373,0,11.559-5.186,11.559-11.56S702.992,53.089,696.619,53.089z
					"/>
			</g>
		</g>
	</g>
</g>
<g>
	<g>
		<g>
			<path class="st0" d="M787.079,87.5c-0.149,0-0.298-0.001-0.444-0.003c-0.147-0.002-0.295-0.005-0.443-0.009
				c-9.512-0.25-16.498-4.229-19.169-10.912c-0.481-1.203-0.46-2.519,0.059-3.706c0.53-1.209,1.509-2.139,2.757-2.618
				c0.56-0.214,1.188-0.327,1.82-0.327c1.366,0,2.629,0.503,3.465,1.381c0.404,0.425,0.692,0.92,0.932,1.352l0.417,0.756
				c0.217,0.387,0.476,0.834,0.805,1.213c0.543,0.623,1.333,1.188,2.347,1.68c1.19,0.576,2.596,0.975,4.294,1.218
				c0.366,0.054,0.726,0.095,1.07,0.125c0.714,0.066,1.439,0.099,2.157,0.099c1.108,0,2.245-0.077,3.379-0.229
				c1.359-0.181,2.785-0.519,4.241-1.004c0.807-0.269,1.958-0.717,2.65-1.503c0.301-0.34,0.495-0.847,0.497-1.291
				c0.012-1.891-2.854-2.761-4.233-3.18c-1.863-0.566-3.56-1.016-5.184-1.373c-6.922-1.526-11.354-2.578-14.557-4.315
				c-4.304-2.335-6.33-5.919-6.194-10.956c0.164-6.024,5.887-10.657,14.933-12.09c1.819-0.289,3.675-0.435,5.517-0.435
				c2.715,0,5.286,0.311,7.641,0.922c6.726,1.751,9.336,5.353,10.342,8.067c0.103,0.279,0.14,0.579,0.174,0.845
				c0.01,0.08,0.017,0.139,0.025,0.195c0.053,0.365,0.075,0.69,0.066,0.992c-0.017,0.661-0.19,1.3-0.518,1.896
				c-0.66,1.198-1.753,2.065-2.999,2.378c-0.354,0.089-0.746,0.153-1.162,0.188c-0.133,0.012-0.269,0.018-0.403,0.018
				c-1.566,0-2.266-0.87-2.885-1.638c-0.148-0.185-0.301-0.375-0.468-0.557c-1.106-1.206-2.332-2.028-3.857-2.588
				c-1.216-0.446-2.383-0.691-3.901-0.82c-0.934-0.08-1.761-0.118-2.527-0.118c-0.756,0-1.458,0.036-2.148,0.11
				c-0.436,0.046-0.874,0.105-1.308,0.174c-1.586,0.251-3.249,0.577-4.671,1.265c-0.396,0.192-0.734,0.403-1.032,0.645
				c-0.519,0.42-0.833,0.962-0.863,1.482c-0.021,0.385,0.12,0.736,0.422,1.044c0.63,0.642,1.493,0.921,2.408,1.216
				c0.096,0.031,0.19,0.062,0.283,0.093c0.737,0.241,1.402,0.443,2.026,0.614c1.576,0.434,3.165,0.807,4.647,1.145
				c1.133,0.258,2.243,0.504,3.18,0.709c9.188,2.025,14.025,4.695,16.177,8.929c1.554,3.06,1.412,6.617-0.42,10.573
				C803.75,84.92,794.782,87.5,787.079,87.5z"/>
		</g>
	</g>
</g>
<path class="st1" d="M350.561,41.41c-4.836,0-8.927,1.68-11.934,4.868c-3.006-3.188-7.097-4.868-11.933-4.868
	c-5.422,0-9.91,2.105-12.979,6.088c-3.155,4.092-4.688,9.931-4.688,17.849V82.01c0,3.168,2.567,5.734,5.734,5.734
	c3.167,0,5.734-2.566,5.734-5.734V65.347c0-6.839,1.442-9.732,2.303-10.847c0.618-0.801,1.563-1.621,3.896-1.621
	s3.279,0.819,3.897,1.621c0.86,1.115,2.302,4.008,2.302,10.847V82.01c0,3.168,2.567,5.734,5.734,5.734
	c3.167,0,5.734-2.566,5.734-5.734V65.347c0-6.839,1.442-9.732,2.303-10.847c0.618-0.801,1.563-1.621,3.897-1.621
	c2.333,0,3.279,0.819,3.897,1.621c0.86,1.115,2.302,4.008,2.302,10.847V82.01c0,3.168,2.567,5.734,5.734,5.734
	c3.167,0,5.734-2.566,5.734-5.734V65.347c0-7.918-1.533-13.757-4.688-17.85C360.47,43.516,355.981,41.41,350.561,41.41z"/>
<path class="st1" d="M444.204,41.092c-4.552,0-8.803,1.304-12.408,3.551c-0.807-2.19-2.906-3.756-5.377-3.756
	c-3.167,0-5.734,2.567-5.734,5.734v17.787c0,0.071-0.005,0.14-0.005,0.21s0.005,0.139,0.005,0.209v36.988
	c0,3.168,2.567,5.734,5.734,5.734s5.734-2.566,5.734-5.734V84.811c3.528,2.113,7.649,3.331,12.051,3.331
	c12.972,0,23.525-10.554,23.525-23.525S457.176,41.092,444.204,41.092z M444.204,76.673c-6.577,0-11.938-5.295-12.051-11.846v-0.419
	c0.113-6.551,5.474-11.847,12.051-11.847c6.648,0,12.057,5.409,12.057,12.057S450.852,76.673,444.204,76.673z"/>
<path class="st1" d="M542.504,41.003c-6.281-0.614-12.425,1.254-17.301,5.261c-4.876,4.008-7.9,9.673-8.514,15.954
	c-0.615,6.28,1.254,12.424,5.262,17.299c4.007,4.876,9.672,7.899,15.953,8.514c0.784,0.077,1.564,0.114,2.342,0.114
	c5.451,0,10.691-1.869,14.958-5.374c2.447-2.011,2.802-5.624,0.791-8.071c-2.011-2.446-5.624-2.801-8.071-0.791
	c-2.51,2.062-5.674,3.023-8.903,2.708c-3.231-0.317-6.146-1.872-8.209-4.38c-2.062-2.509-3.022-5.67-2.706-8.903
	c0.315-3.232,1.871-6.147,4.379-8.208c2.51-2.063,5.674-3.024,8.904-2.708c1.778,0.174,3.48,0.738,4.99,1.63l-6.73,6.77
	c-2.232,2.246-2.223,5.876,0.023,8.109c2.245,2.233,5.877,2.223,8.11-0.023l10.892-10.957c1.996-2.007,2.229-5.168,0.549-7.446
	C555.253,45.116,549.159,41.655,542.504,41.003z"/>
<path class="st1" d="M505.916,62.116c3.482-4.214,5.577-9.614,5.577-15.496c0-3.167-2.568-5.734-5.735-5.734
	c-3.167,0-5.734,2.567-5.734,5.734c0,7.111-5.785,12.896-12.896,12.896c-1.438,0-2.847-0.233-4.188-0.694
	c-0.331-0.114-0.667-0.19-1.002-0.242V27.086c0-3.167-2.567-5.734-5.734-5.734c-3.167,0-5.734,2.567-5.734,5.734v55.321
	c0,3.167,2.568,5.734,5.734,5.734c3.167,0,5.734-2.567,5.734-5.734c0-6.655,5.415-12.07,12.07-12.07s12.069,5.415,12.069,12.07
	c0,3.167,2.568,5.734,5.734,5.734c3.168,0,5.734-2.567,5.734-5.734C517.545,73.772,512.867,66.212,505.916,62.116z"/>
<path class="st1" d="M604.283,61.006c-0.951-5.938-2.83-10.903-2.91-11.112c-1.129-2.958-4.442-4.442-7.4-3.313
	c-2.959,1.129-4.442,4.442-3.314,7.401c2.298,6.024,4.084,16.279,1.303,19.061c-4.701,4.701-12.35,4.701-17.051,0.001
	c-2.76-2.762-0.979-13.028,1.303-19.062c1.129-2.959-0.354-6.272-3.313-7.401c-2.96-1.129-6.273,0.354-7.4,3.313
	c-0.08,0.209-1.96,5.174-2.91,11.112c-1.46,9.113-0.042,15.891,4.212,20.147c3.119,3.118,6.904,5.174,10.9,6.171v14.332
	c0,3.167,2.567,5.734,5.734,5.734c3.168,0,5.734-2.567,5.734-5.734V87.324c3.997-0.998,7.782-3.053,10.9-6.172
	C604.325,76.896,605.743,70.118,604.283,61.006z"/>
<g>
	<path class="st1" d="M411.734,89.178c-3.006,0-5.453-2.445-5.453-5.452V66.065c0-6.715-5.463-12.179-12.178-12.179
		s-12.177,5.463-12.177,12.179s5.462,12.178,12.177,12.178c0,0,0.038,0,0.039,0c0.482,0,2.087-0.096,3.308-0.524
		c0.583-0.204,1.188-0.307,1.801-0.307c2.313,0,4.382,1.467,5.146,3.651c0.994,2.838-0.507,5.955-3.344,6.948
		c-3.01,1.055-6.063,1.136-6.926,1.136h-0.044c-12.714-0.009-23.062-10.363-23.062-23.083c0-12.729,10.355-23.083,23.083-23.083
		s23.083,10.355,23.083,23.083v17.661C417.187,86.732,414.74,89.178,411.734,89.178z"/>
</g>
<g>
	<path class="st1" d="M98.138,189.889c3.115,0,5.641,2.525,5.641,5.642c0,3.115-2.526,5.642-5.641,5.642s-5.641-2.526-5.641-5.642
		C92.497,192.414,95.022,189.889,98.138,189.889z M138.101,189.889c3.116,0,5.642,2.525,5.642,5.642
		c0,3.115-2.526,5.642-5.642,5.642s-5.641-2.526-5.641-5.642C132.46,192.414,134.985,189.889,138.101,189.889z M146.077,183.939
		l-8.215-1.553c-3.159-0.598-7.52-3.025-9.692-5.395l-0.161-0.176c-2.172-2.369-6.58-4.303-9.794-4.294l-11.688,0.027
		c-3.214,0.007-7.561,1.929-9.659,4.27s-5.709,4.582-8.024,4.979c-2.315,0.398-4.179,3.354-4.143,6.568l0.005,0.447
		c0.033,2.879,2.17,5.281,4.924,5.754c0.48-4.271,4.112-7.602,8.508-7.602c4.427,0,8.081,3.378,8.52,7.691H129.5
		c0.439-4.313,4.093-7.691,8.52-7.691c4.425,0,8.077,3.374,8.519,7.686c3.138-0.07,5.592-2.204,5.484-4.811
		C151.911,187.192,149.235,184.537,146.077,183.939z M101.724,182.822c-3.214-0.013-4.627-1.617-3.139-3.566
		c1.488-1.949,5.335-3.545,8.55-3.545h3.221l2.058,7.15L101.724,182.822z M124.273,182.904l-8.815-0.032l-2.061-7.161h4.452
		c3.215,0,7.29,1.623,9.056,3.607C128.673,181.303,127.488,182.916,124.273,182.904z"/>
</g>
<g>
	<path class="st1" d="M187.778,280.979c-0.416-0.85-0.349-2.54,0.223-3.097c0.576-0.562,2.133-0.459,3.125-0.177
		c2.295,0.655,5.866,2.064,5.866,2.064c0.006,0.002,0.011,0.003,0.017,0.006c1.074-2.469,2.595-5.018,4.894-7.211
		c0.421-0.401,0.865-0.738,1.306-1.026c-0.111-0.136-0.285-0.235-0.515-0.279c0,0-9.374-1.742-14.428,0.919
		c-2.439,1.284-3.39,3.423-3.309,6.094c0.026,0.89,0.061,1.538,0.061,1.538c0.033,0.622,0.22,1.613,0.415,2.204l0.871,2.628
		c0.196,0.591,0.614,1.47,0.929,1.953c0,0,0,0,0.275,0.447c1.775,2.879,4.563,7.407,5.737,9.315c0.139-1.512,0.308-2.95,0.511-4.326
		c-0.01-0.018-0.019-0.034-0.029-0.051C191.617,288.386,189.613,284.721,187.778,280.979z"/>
	<path class="st1" d="M230.221,281.478c-1.011-2.391-2.354-4.563-4.179-6.437c-0.963-0.99-2.136-1.493-3.425-1.858
		c-0.28-0.078-0.667-0.43-0.685-0.678c-0.178-2.467-1.911-4.605-5.177-5.151c-0.242-0.04-0.242-0.04-0.242-0.04
		c-0.26-0.09-0.868-0.163-1.351-0.163c-0.484,0-2.216,0.123-2.773,0.275c0,0,0,0-0.499,0.163c-2.143,0.693-3.443,2.146-3.737,4.386
		c-0.102,0.781-0.365,1.152-1.143,1.438c-0.913,0.335-1.834,0.855-2.535,1.524c-3.027,2.886-4.607,6.604-5.744,10.535
		c-1.34,4.637-1.956,9.397-2.262,14.197c-0.193,3.008-0.263,6.023-0.329,9.039c-0.078,3.6,1.181,5.359,4.58,6.558
		c0.086,0.029,28.011,0.003,28.011,0.003c1.037-0.001,2.541-0.539,3.342-1.197c0,0,2.154-1.768,2.084-4.239
		c-0.139-4.955-0.335-9.915-0.743-14.854C233.032,290.341,232.047,285.797,230.221,281.478z M212.011,270.711
		c0,0,0.322-1.909,2.865-1.958c2.168-0.042,2.876,2.081,2.876,2.081c0.266,1.098,0.021,1.674-1.016,1.674h-3.41
		C212.289,272.508,211.698,271.7,212.011,270.711z M215.148,278.264c2.836,0,5.135,0.869,5.135,1.941
		c0,1.073-2.298,1.942-5.135,1.942c-2.835,0-5.134-0.869-5.134-1.942C210.015,279.133,212.313,278.264,215.148,278.264z
		 M218.045,310.686h-5.792c-3.884,0-6.678-3.154-6.208-7.011l1.198-9.843c0.469-3.855,4.027-7.01,7.906-7.01
		c3.88,0,7.438,3.154,7.907,7.01l1.198,9.843C224.723,307.531,221.929,310.686,218.045,310.686z"/>
	<path class="st1" d="M243.33,273.042c-5.187-3.324-15.324-1.553-15.324-1.553c-0.239,0.042-0.417,0.146-0.526,0.286
		c0.381,0.277,0.758,0.598,1.12,0.97c1.982,2.036,3.539,4.427,4.757,7.307c0.122,0.29,0.24,0.582,0.356,0.875
		c0.083-0.026,0.162-0.068,0.233-0.127c0,0,0,0,0.366-0.18c2.08-1.019,4.101-2.234,6.285-2.938c1.955-0.629,3.02,0.519,2.621,2.551
		c-0.24,1.213-0.808,2.489-0.808,2.489c-0.252,0.57-0.706,1.48-1.007,2.024l-4.022,6.633c-0.248,0.396-0.549,1.014-0.763,1.547
		c0.055,0.497,0.105,0.994,0.147,1.496c0.074,0.896,0.139,1.786,0.2,2.672c0.191-0.258,0.402-0.557,0.583-0.843
		c2.221-3.525,6.012-9.648,6.012-9.648c0.328-0.528,0.757-1.444,0.954-2.034l0.649-1.944c0.197-0.59,0.441-2.012,0.473-2.367
		c0.031-0.356,0.055-1.157,0.054-1.779C245.688,278.479,245.679,274.547,243.33,273.042z"/>
</g>
<g>
	<path class="st1" d="M114.601,405.599c0,2.412-1.956,4.367-4.368,4.367c-2.412,0-4.367-1.955-4.367-4.367s1.955-4.368,4.367-4.368
		C112.645,401.23,114.601,403.187,114.601,405.599z M126.304,401.23c-2.412,0-4.368,1.956-4.368,4.368s1.956,4.367,4.368,4.367
		c2.413,0,4.368-1.955,4.368-4.367S128.716,401.23,126.304,401.23z M149.452,405.011c0,6.888-5.05,14.686-11.104,21.563
		c-1.266,7.558-3.153,13.286-3.153,13.286s-2.616-1.337-6.222-3.85c-6.028,5.472-11.043,9.116-11.043,9.116
		s-5.171-3.814-11.268-9.499c-3.59,2.748-6.233,4.238-6.233,4.238s-2.489-6.66-4.059-15.12c-5.116-6.313-9.122-13.236-9.122-19.458
		c0-17.215,13.925-24.602,30.87-24.602C135.063,380.688,149.452,387.794,149.452,405.011z M101.648,397.247
		c1.938-2.279,3.521-3.07,3.521-3.07c0.704-0.352,0.654-0.79-0.11-0.976c0,0-4.945-1.198-7.044,1.271
		c-2.099,2.47,0.162,6.745,0.162,6.745c0.368,0.694,0.857,0.647,1.085-0.105C99.262,401.112,99.766,399.462,101.648,397.247z
		 M126.077,427.644c-0.435,0.056-0.875,0.088-1.324,0.088c-0.391,0-0.786-0.021-1.182-0.066c-2.099-0.239-3.95-1.072-5.309-2.337
		c-1.359,1.265-3.209,2.098-5.309,2.337c-0.397,0.045-0.792,0.066-1.182,0.066c-0.506,0-1.004-0.037-1.491-0.109
		c3.267,3.588,7.906,5.349,7.906,5.349S122.771,431.215,126.077,427.644z M134.622,406.445c0-7.323-7.285-13.26-16.272-13.26
		c-8.986,0-16.272,5.937-16.272,13.26c0,1.219,0.206,2.399,0.584,3.521h-0.003c0,0,0.003,0.001,0.004,0.002
		c0.73,2.164,2.116,4.106,3.976,5.678c0.305,1.229,0.5,2.713,0.5,4.504c0,0.653,0.064,1.281,0.182,1.885
		c0.151,0.101,0.289,0.226,0.409,0.374c0.989,1.232,2.834,1.857,4.814,1.635c1.645-0.187,3.006-0.913,3.767-1.98v-1.534
		c-0.078-0.109-0.154-0.222-0.227-0.347l-3.129-5.421c-1.127-1.953-0.205-3.551,2.05-3.551c0,0,2.428,0.388,3.229,0.388
		c0.764,0,3.031-0.388,3.031-0.388c2.255,0,3.178,1.598,2.05,3.551l-3.099,5.366v1.935c0.76,1.068,2.123,1.793,3.768,1.981
		c1.979,0.223,3.825-0.402,4.814-1.635c0.106-0.133,0.229-0.245,0.362-0.341c0.137-0.614,0.22-1.253,0.24-1.918
		c0.052-1.804,0.367-3.339,0.809-4.63c1.785-1.548,3.118-3.444,3.829-5.552c0.001,0,0.004-0.002,0.004-0.002h-0.003
		C134.416,408.845,134.622,407.664,134.622,406.445z M138.785,394.554c-2.047-2.532-6.727-1.369-6.727-1.369
		c-0.763,0.189-0.82,0.647-0.126,1.019c0,0,1.507,0.808,3.397,3.145c1.837,2.272,2.349,3.986,2.349,3.986
		c0.225,0.753,0.692,0.791,1.038,0.085C138.716,401.419,140.833,397.088,138.785,394.554z"/>
</g>
<g>
	<path class="st0" d="M106.474,268.698c-2.62-4.806-4.951-4.761-7.444,0.068c-2.429,4.708-4.867,9.409-7.305,14.12
		c-3.391-3.18-4.638-2.896-6.952,1.471c-4.772,9.01-9.54,18.024-14.3,27.046c-0.489,0.927-0.917,1.903-1.371,2.852
		c2.955,2.309,5.752,3.071,10.072,1.783c6.401-1.909,12.686-4.446,19.079-6.406c4.757-1.459,9.617-1.475,14.486-0.362
		c-6.926,1.733-13.76,3.631-19.919,8.386c4.663-0.026,9.274,1.732,13.936-0.733c5.118-2.707,10.555-4.039,16.123-3.668
		c2.84,0.189,5.656,0.983,8.69,1.542C123.145,299.32,114.819,284.002,106.474,268.698z M115.221,293.298
		c-6.892-3.618-13.383-0.485-19.576,3.925c-5.261,3.748-9.42,3.337-13.405-0.994c1.826-3.453,3.641-6.976,5.537-10.428
		c0.813-1.481,1.478-0.916,2.338,0.298c0.617,0.872,1.027,1.583,1.982,3.106c0.845-1.832,6.544-12.999,9.031-17.663
		c0.676-1.27,1.525-2.811,2.658-0.781c4.097,7.336,8.732,15.866,12.824,23.354C115.689,293.585,116.281,293.854,115.221,293.298z"/>
</g>
<g>
	<path class="st0" d="M114.107,529.017c-1.307-1.789-3.449-1.794-4.764-0.012L91.583,553.1c-1.315,1.783-0.66,3.78,1.455,4.438
		c0,0,6.195,1.929,18.581,1.929c12.384,0,18.579-1.929,18.579-1.929c2.115-0.658,2.777-2.661,1.471-4.45L114.107,529.017z
		 M112.305,552.644c-2.216,0.017-6.301,0.15-6.042-2.05c0.356-3.019,2.597-10.858,5.466-10.859c2.871-0.002,4.668,8.11,5.502,10.752
		C117.878,552.536,114.66,552.626,112.305,552.644z M133.928,532.063c-0.273,2.232-4.496,6.396-6.604,6.797
		c-1.123,0.212-2.047-1.209-3.401-2.961l-9.673-12.514c-1.355-1.752-3.568-1.749-4.917,0.008l-9.647,12.559
		c-1.35,1.757-2.083,2.954-3.203,2.758c-2.206-0.385-6.502-4.876-6.797-6.617c-0.192-1.126,1.161-1.874,2.913-3.229l11.955-9.241
		c1.753-1.354,1.75-3.567-0.007-4.917l-12.09-9.288c-1.757-1.35-2.954-3.681-2.176-4.935c0.804-1.298,3.048-3.473,4.319-4.319
		c1.228-0.817,3.59,0.416,4.945,2.168l9.684,12.528c1.355,1.752,3.568,1.749,4.917-0.008l9.635-12.543
		c1.35-1.758,1.889-3.01,3.135-2.961c1.765,0.067,6.334,4.604,6.629,6.345c0.191,1.126-0.924,2.35-2.677,3.704l-11.935,9.226
		c-1.753,1.355-1.75,3.568,0.007,4.918l12.071,9.272C132.769,530.161,134.068,530.929,133.928,532.063z"/>
</g>
<g>
	<path class="st1" d="M582.919,161.018c-0.829-1.027-1.231-1.248-1.231-1.248c-1.124-0.617-2.786-1.864-3.693-2.77
		c0,0-2.237-2.233-5.192-2.233c-2.477,0-4.306,1.409-4.306,1.409c-1.016,0.783-2.869,1.189-4.118,0.904c0,0-0.387-0.088-1.834-0.088
		c-5.24,0-9.191,2.616-9.191,6.089c0,1.563,0.718,2.359,0.718,2.359c0.86,0.952,1.711,2.769,1.894,4.038
		c0,0,0.143,0.995,1.265,2.418c1.122,1.424,3.363,3.384,4.275,4.16c3.343,2.848,3.856,2.848,4.506,2.848
		c0.047,0,0.099-0.002,0.146-0.004c0.514-0.035,1.005-0.097,1.479-0.158c0.607-0.076,1.182-0.148,1.704-0.148
		c0.173,0,0.329,0.009,0.479,0.023c0.108,0.011,0.215,0.018,0.318,0.018c0.935,0,1.74-0.471,2.152-1.262
		c0.658-1.258,0.165-2.1,0.165-2.1c-0.65-1.104-1.17-2.019-1.156-2.033c0.015-0.014,0.146-0.048,0.263-0.046c0,0,0,0,0.104,0
		c4.562,0,7.677-3.706,7.677-3.706c0.824-0.981,2.254-2.513,3.178-3.402c0,0,0.693-0.668,0.99-2.085
		C583.749,162.865,583.533,161.778,582.919,161.018z M577.868,164.707c-0.824,0.982-2.109,2.64-2.854,3.683
		c0,0-1.177,1.646-4.131,1.646c-0.324,0-0.324,0-0.324,0c-0.346-0.031-0.837,0.169-1.09,0.446c-0.254,0.277-0.691,1.642-0.107,2.783
		c0,0,1.233,2.407,0.458,2.767c-1.482,0.689-2.825,0.433-4.521-0.069c-0.309-0.092-4.594-4.438-5.802-5.969
		c-0.831-1.056-0.307-1.806-0.307-1.806c0.732-1.052,0.492-2.526-0.534-3.278c0,0,0,0,0-0.91c0-1.655,2.391-2.998,5.341-2.998
		c1.479,0,1.609,0.05,1.609,0.05c1.197,0.459,2.836,0.018,3.642-0.979c0,0,0.606-0.75,2.493-0.75c1.905,0,2.522,0.779,2.522,0.779
		c0.797,1.004,2.258,2.16,3.244,2.568c0,0,0,0,0.629,0.778C578.524,163.927,577.868,164.707,577.868,164.707z"/>
	<path class="st1" d="M596.403,215.198l-16.613-30.324c-1.123-2.051-3.784-3.729-5.914-3.729h-11.739
		c-2.129,0-4.79,1.679-5.914,3.729l-16.613,30.324c-1.123,2.051-0.301,3.729,1.829,3.729h53.138
		C596.705,218.928,597.527,217.249,596.403,215.198z M585.986,214.794l-11.911-17.409c-1.305-1.908-3.301-1.797-4.434,0.247
		l-0.747,1.349c-1.134,2.043-2.717,1.886-3.519-0.351l-2.068-5.77c-0.803-2.236-2.357-2.403-3.456-0.371
		c-1.1,2.033-2.096,1.724-2.217-0.688l-0.144-2.883c-0.119-2.41,1.524-4.421,3.652-4.467l10.617-0.231
		c2.129-0.046,4.55,1.735,5.378,3.96l9.713,26.038C587.681,216.442,587.292,216.701,585.986,214.794z"/>
</g>
<g>
	<path class="st0" d="M652.792,177.277c-1.366-0.799-1.257-1.867,0.242-2.372l25.818-8.715c1.499-0.505,3.947-0.49,5.44,0.035
		l24.676,8.677c1.493,0.524,1.597,1.607,0.23,2.406l-25.693,15.025c-1.365,0.799-3.601,0.799-4.967,0L652.792,177.277z
		 M685.329,196.082c-1.365,0.799-2.95,1.725-3.521,2.059c-0.571,0.334-1.505,0.334-2.075,0c-0.571-0.334-2.155-1.26-3.521-2.059
		l-12.321-7.207c-1.367-0.799-2.6-0.162-2.739,1.414c0,0-0.414,4.599-0.546,6.085c-0.133,1.486,0.844,3.41,2.168,4.275l15.389,6.723
		c1.434,0.668,3.781,0.668,5.216,0l15.373-6.747c1.334-0.853,2.316-2.765,2.184-4.251c-0.132-1.486-1.919-8.298-3.285-7.499
		L685.329,196.082z M655.978,202.863c-0.376-0.793-0.429-1.749-0.117-2.126c0,0,0,0,0-0.423c0-0.546,0-0.546,0-0.546
		c-0.502-0.44-0.912-2.096-0.912-3.678v-10.267c0-1.582-0.67-3.26-1.49-3.729c-0.821-0.467-1.493,0.444-1.493,2.026v11.97
		c0,1.582-0.41,3.236-0.911,3.677c0,0,0,0,0,0.546c0,0.383,0,0.383,0,0.383c0.26,0.351,0.158,1.301-0.225,2.113
		c-0.384,0.812-0.091,2.73,1.395,3.167S656.354,203.655,655.978,202.863z"/>
</g>
<path class="st0" d="M585.946,281.506c0-6.27-4.136-11.443-9.487-12.225c-1.365-5.044-5.512-8.713-10.417-8.713
	c-3.254,0-6.172,1.616-8.17,4.176c-1.993-1.388-4.415-2.202-7.029-2.202c-6.809,0-12.328,5.52-12.328,12.328
	c0,0.882,0.095,1.742,0.271,2.572c-2.571,2.242-4.171,5.381-4.171,8.861c0,3.997,2.761,9.771,10.289,10.346
	c-0.336,5.202,5.811,9.054,10.218,7.43c0.274-5.259,0.202-17.909-5.567-28.958c9.634,8.97,9.401,24.511,9.072,29.312
	c-0.014,6.72-2.012,20.763-1.439,20.195l9.821-0.049c0.623,0.479-2.35-8.774-0.487-23.202c0.377-1.644,0.691-1.996,0.691-1.996
	s5.29,7.896,13.422,1.791c1.953-2.228,3.162-5.296,3.162-8.683c0-1.078-0.124-2.123-0.354-3.12
	C585.007,287.235,585.946,284.495,585.946,281.506z"/>
<g>
	<path class="st1" d="M457.747,281.606h-24.965l11.005-9.204v-10.075h0.084c3.858-5.491,7.717,5.49,11.575,0
		c0,2.179,0,4.357,0,6.535c-2.885,4.106-5.771-0.999-8.656-1.538v5.078L457.747,281.606z M450.01,296.506
		c0-0.629-0.51-1.139-1.139-1.139h-2.7l-3.713-3.338c-0.467-0.42-1.188-0.382-1.608,0.086s-0.382,1.188,0.085,1.607l4.037,3.63
		c0.208,0.188,0.48,0.291,0.761,0.291h3.136C449.5,297.645,450.01,297.135,450.01,296.506z M476.885,309.851v15.387
		c0,0.6-0.49,1.089-1.09,1.089h-25.474c0-4.084,0-8.17,0-12.255c-2.81-2.723-7.274-2.723-10.084,0c0,4.085,0,8.171,0,12.255h-25.445
		c-0.6,0-1.089-0.489-1.089-1.089v-15.387c0-0.6,0.49-1.09,1.089-1.09h19.448v-1.701h-19.481c-0.6,0-0.714-0.315-0.254-0.699
		l5.91-4.935c0.46-0.385,1.326-0.699,1.925-0.699h11.9v-16.419c0-0.601,0.491-1.091,1.09-1.091h19.88c0.6,0,1.09,0.49,1.09,1.091
		v16.419h11.881c0.599,0,1.466,0.314,1.925,0.699l5.91,4.935c0.459,0.384,0.346,0.699-0.254,0.699H456.3v1.701h19.496
		C476.395,308.761,476.885,309.251,476.885,309.851z M422.72,313.027h-5.174v7.444h5.174V313.027L422.72,313.027z M432.433,313.027
		h-5.174v7.444h5.174V313.027L432.433,313.027z M452.401,296.506c0-3.937-3.191-7.127-7.127-7.127c-3.935,0-7.125,3.19-7.125,7.127
		c0,3.936,3.19,7.126,7.125,7.126C449.21,303.632,452.401,300.441,452.401,296.506z M464.206,313.027h-5.174v7.444h5.174V313.027z
		 M473.103,313.027h-5.175v7.444h5.175V313.027z"/>
</g>
<g>
	<path class="st0" d="M335.268,280.765c-0.941-0.822-2.416-1.234-4.423-1.234H327.5v10.294h2.419c2.261,0,3.953-0.446,5.076-1.34
		c1.122-0.894,1.684-2.195,1.684-3.902C336.679,282.859,336.209,281.587,335.268,280.765z"/>
	<path class="st0" d="M358.119,270.783l-5.521-9.772c0,0-10.105,5.445-22.291,0.639c-12.185,4.807-22.289-0.639-22.289-0.639
		l-5.522,9.772c4.226,3.316,9.596,4.358,5.281,19.32c-8.432,29.23,19.843,22.288,22.531,35.025
		c2.688-12.737,30.963-5.795,22.532-35.025C348.524,275.142,353.893,274.1,358.119,270.783z M340.604,292.885
		c-2.332,1.976-5.648,2.964-9.949,2.964H327.5v12.332h-7.352v-34.674h11.076c4.206,0,7.403,0.904,9.593,2.716
		c2.19,1.81,3.285,4.51,3.285,8.1C344.103,288.053,342.937,290.907,340.604,292.885z"/>
</g>
<g>
	<path class="st1" d="M341.066,404.275c-4.014,0-7.397,2.754-8.358,6.473h16.715C348.463,407.03,345.08,404.275,341.066,404.275z"/>
	<path class="st1" d="M341.066,421.536c4.014,0,7.397-2.754,8.357-6.473h-16.715C333.669,418.782,337.052,421.536,341.066,421.536z"
		/>
	<path class="st1" d="M350.723,385.863v4.229h-0.03c-0.105,1.093-1.026,1.948-2.147,1.948h-14.96c-1.191,0-2.158-0.967-2.158-2.158
		c0-0.094,0.008-0.185,0.02-0.274v-3.745h-9.369v24.885h6.224c1.031-6.114,6.36-10.788,12.763-10.788
		c6.404,0,11.732,4.674,12.763,10.788h6.225v-24.885H350.723z"/>
	<path class="st1" d="M353.828,415.063c-1.03,6.115-6.359,10.788-12.763,10.788c-6.403,0-11.731-4.673-12.763-10.788h-6.224v24.886
		h9.369v-3.617c-0.012-0.09-0.02-0.182-0.02-0.274c0-1.192,0.966-2.157,2.158-2.157h14.96c1.153,0,2.092,0.904,2.152,2.043h0.004
		v0.081c0,0.011,0.002,0.021,0.002,0.032c0,0.012-0.001,0.022-0.002,0.034v3.858h9.352v-24.886H353.828L353.828,415.063z"/>
</g>
<g>
	<path class="st0" d="M481.039,438.682h2.714v2.725v0.563v1.675c0,1.505-1.219,2.725-2.725,2.725H423.82
		c-1.505,0-2.725-1.221-2.725-2.725v-2.238v-2.725h2.715c0.003,0,0.007-0.001,0.01-0.001h57.208
		C481.032,438.681,481.036,438.682,481.039,438.682z M423.723,400.975h57.403c1.451,0,2.627-1.176,2.627-2.626l-31.329-18.904
		l-31.329,18.904C421.095,399.799,422.271,400.975,423.723,400.975z M436.637,409.056v-0.653h0.665v-2.975h-5.429h-2.625h-5.43
		v2.975h0.666v0.653c0,0.708,0.643,1.281,1.437,1.285v19.097c-0.795,0.003-1.437,0.577-1.437,1.285v0.651h-0.666v2.976h13.484
		v-2.976h-0.665v-0.651l0,0c0-0.708-0.643-1.282-1.438-1.285v-19.097C435.994,410.337,436.637,409.764,436.637,409.056z
		 M480.365,409.056v-0.653h0.665v-2.975h-5.43h-2.624h-5.43v2.975h0.665v0.653c0,0.708,0.642,1.281,1.436,1.285v19.097
		c-0.794,0.003-1.436,0.577-1.436,1.285v0.651h-0.665v2.976h13.483v-2.976h-0.665v-0.651l0,0c0-0.708-0.645-1.282-1.438-1.285
		v-19.097C479.723,410.337,480.365,409.764,480.365,409.056z M458.502,409.056v-0.653h0.665v-2.975h-5.43h-2.625h-5.43v2.975h0.665
		v0.653c0,0.708,0.644,1.281,1.438,1.285v19.097c-0.794,0.003-1.438,0.577-1.438,1.285v0.651h-0.665v2.976h13.483v-2.976h-0.663
		v-0.651H458.5c0-0.708-0.641-1.282-1.437-1.285v-19.097C457.859,410.337,458.502,409.764,458.502,409.056z"/>
</g>
<g>
	<path class="st0" d="M440.585,158.448l-12.266,6.007c-1.541,0.753-2.802,2.775-2.802,4.491v44.552c0,1.716,1.261,2.503,2.802,1.749
		l12.266-6.002c1.542-0.754,2.803-2.775,2.803-4.49v-44.559C443.388,158.479,442.127,157.693,440.585,158.448z"/>
	<path class="st0" d="M460.56,164.244l-9.806-5.481c-1.499-0.837-2.724-0.119-2.724,1.598v44.448c0,1.717,1.226,3.806,2.724,4.644
		l9.806,5.483c1.499,0.838,2.725,0.119,2.725-1.597v-44.453C463.284,167.17,462.059,165.08,460.56,164.244z"/>
	<path class="st0" d="M482.877,158.476l-12.033,5.959c-1.538,0.762-2.796,2.789-2.796,4.505v44.546c0,1.716,1.258,2.497,2.796,1.736
		l12.033-5.962c1.538-0.762,2.797-2.791,2.797-4.506v-44.543C485.674,158.495,484.415,157.714,482.877,158.476z"/>
</g>
<g>
	<path class="st1" d="M369.462,201.374l-2.5,0.361c2.412,3.354,0.278,6.345-7.987,5.287c-2.903-0.372-3.522-4.438-3.522-4.438
		h-3.483c0,0,1.135,3.29-0.907,3.994c-4.305,1.483-10.78,1.07-15.117,0.235c-6.025-1.159-6.033-4.229-6.033-4.229l-7.124,0.044
		c0,0,2.883,2.473,2.337,3.331c-0.371,0.581-3.74,0.864-5.826,0.619c-1.832-0.217-3.683,3.791-3.683,3.791h43.667
		c5.925,0,9.683-0.149,11.019-3.609C370.927,205.142,371.107,203.386,369.462,201.374z M362.271,190.209
		c-3.397-0.217-19.722-3.919-20.402-26.151c-0.078-2.542-20.346,1.77-20.166,9.179c0.196,8.067-0.745,5.931-1.551,15.651
		c-0.702,8.46,0.25,12.568,0.25,12.568l13.708,0.038c0,0-0.3-5.895,1.315-5.895c11.181,0,2.617,8.39,32.417,5.162
		C370.85,200.435,370.038,190.704,362.271,190.209z M334.517,169.704c0-1.489,1.207-2.696,2.696-2.696s2.697,1.207,2.697,2.696
		s-1.208,2.696-2.697,2.696C335.725,172.4,334.517,171.193,334.517,169.704z M339.673,181.618c-1.49,0-2.696-1.208-2.696-2.696
		c0-1.489,1.207-2.697,2.696-2.697c1.489,0,2.697,1.208,2.697,2.697C342.37,180.41,341.162,181.618,339.673,181.618z
		 M344.493,189.355c-1.49,0-2.697-1.207-2.697-2.697c0-1.488,1.208-2.695,2.697-2.695c1.489,0,2.696,1.207,2.696,2.695
		C347.189,188.147,345.981,189.355,344.493,189.355z"/>
</g>
<g>
	<path class="st0" d="M238.485,390.509c0,0.993-0.813,1.806-1.806,1.806h-14.99c-0.994,0-1.806-0.813-1.806-1.806v-7.586
		c0-0.993,0.812-1.807,1.806-1.807h14.989c0.994,0,1.807,0.814,1.807,1.807V390.509L238.485,390.509z M237.909,394.983
		c-0.993,0-1.271,0.612-0.617,1.36c0,0,2.277,2.604,2.277,5.231c0,4.829-4.538,8.759-10.113,8.759
		c-5.577,0-10.114-3.93-10.114-8.759c0-2.627,2.277-5.231,2.277-5.231c0.654-0.748,0.375-1.36-0.617-1.36h-2.215
		c-0.994,0-2.152,0.736-2.576,1.634c0,0-1.203,2.556-1.203,4.958c0,7.221,6.481,13.094,14.448,13.094s14.448-5.874,14.448-13.094
		c0-2.403-1.204-4.958-1.204-4.958c-0.423-0.897-1.583-1.634-2.575-1.634H237.909z M248.786,417.963
		c-1.498-2.067-2.994-2.854-4.203-3.489c-1.401-0.735-3.61-0.599-4.909,0.305c0,0-5.496,3.817-10.6,3.817
		c-4.911,0-10.189-3.491-10.189-3.491c-1.319-0.873-3.521-0.941-4.893-0.154c-0.979,0.563-2.024,1.163-3.363,3.013
		c-3.421,4.727,3.596,24.029,3.596,24.029c0.54,1.488,2.277,2.705,3.86,2.705h23.245c1.582,0,3.319-1.217,3.859-2.705
		C245.19,441.992,252.207,422.688,248.786,417.963z M229.599,424.055c1.629,0,2.949,1.32,2.949,2.949
		c0,1.628-1.32,2.949-2.949,2.949c-1.628,0-2.948-1.321-2.948-2.949C226.651,425.375,227.971,424.055,229.599,424.055z
		 M229.671,440.165c-1.628,0-2.949-1.319-2.949-2.949c0-1.627,1.32-2.947,2.949-2.947s2.949,1.32,2.949,2.947
		C232.621,438.846,231.3,440.165,229.671,440.165z"/>
</g>
<g>
	<path class="st1" d="M692.474,289.746L692.474,289.746l-0.001-0.598c0-0.121,0-0.241,0-0.362c-0.074-0.499-0.071-1.5-0.064-3.865
		c0.006-2.145,0.03-4.958,0.054-7.44l0.012-1.304v-3.492c-1.241,0.852-2.559,1.64-3.757,2.238c-1.849,0.924-3.699,1.392-5.501,1.392
		l0,0c-1.836,0-3.656-0.483-5.415-1.438c-0.744-0.403-1.491-0.825-2.213-1.232c-0.758-0.428-1.54-0.869-2.314-1.288
		c-1.69-0.913-3.403-1.376-5.089-1.376c-0.809,0-1.633,0.105-2.453,0.314c-2.118,0.539-4.021,1.61-5.468,2.515
		c0.007,5.703,0.007,11.383,0.008,17.063v3.745c0.657-0.378,1.336-0.759,2.041-1.095c1.986-0.947,3.97-1.427,5.896-1.427
		c1.973,0,3.922,0.502,5.795,1.493c1.187,0.627,2.366,1.301,3.507,1.95l0.893,0.508c1.607,0.912,3.239,1.375,4.844,1.375
		c1.457,0,2.956-0.379,4.456-1.127c1.835-0.912,3.442-2.096,4.778-3.141C692.478,292.02,692.475,290.884,692.474,289.746z"/>
	<path class="st1" d="M659.962,269.578v1.83c1.207-0.71,2.636-1.445,4.231-1.966c-0.019-0.518-0.141-0.999-0.334-1.41
		c1.331-0.657,2.248-2.024,2.248-3.61c0-2.224-1.804-4.026-4.027-4.026c-2.225,0-4.028,1.803-4.028,4.026
		c0,1.585,0.918,2.951,2.247,3.609C660.086,268.479,659.962,269.009,659.962,269.578z"/>
	<path class="st1" d="M661.137,296.669c-0.327,0.188-0.655,0.377-0.985,0.56c-0.063,0.033-0.123,0.069-0.189,0.108v23.677
		c0,1.583,0.953,2.877,2.118,2.877s2.118-1.294,2.118-2.877v-25.897c-0.311,0.123-0.623,0.253-0.936,0.402
		C662.549,295.858,661.863,296.252,661.137,296.669z"/>
</g>
<g>
	<path class="st0" d="M814.174,319.75h-0.458c-1.583,0-2.877-1.294-2.877-2.877v-0.377c0-1.582-0.874-2.876-1.941-2.876
		s-1.869-1.293-1.782-2.873l2.347-42.323c0.087-1.58-1.137-2.872-2.719-2.872h-1.3c-1.583,0-3.906-0.785-5.165-1.745
		c0,0-4.294-3.271-10.396-3.271s-10.396,3.271-10.396,3.271c-1.259,0.96-3.583,1.745-5.165,1.745h-0.186
		c-1.582,0-2.806,1.292-2.718,2.872l2.346,42.323c0.087,1.58-0.798,2.873-1.968,2.873c-1.171,0-2.128,1.294-2.128,2.876v0.377
		c0,1.583-1.294,2.877-2.877,2.877h-0.458c-1.581,0-2.877,1.295-2.877,2.877v1.955c0,1.583,1.296,2.877,2.877,2.877h47.842
		c1.582,0,2.877-1.294,2.877-2.877v-1.955C817.051,321.045,815.756,319.75,814.174,319.75z M789.882,265.272
		c2.359,0,4.273,2.475,4.273,5.526c0,3.053-1.913,5.527-4.273,5.527c-2.359,0-4.272-2.476-4.272-5.527
		S787.522,265.272,789.882,265.272z M796.918,309.797h-12.945c-1.191,0-2.157-0.967-2.157-2.157c0-1.192,0.966-2.158,2.157-2.158
		h12.945c1.192,0,2.158,0.966,2.158,2.158C799.076,308.83,798.11,309.797,796.918,309.797z M799.144,298.937h-17.396
		c-1.191,0-2.158-0.967-2.158-2.157c0-1.192,0.967-2.158,2.158-2.158h17.396c1.191,0,2.157,0.966,2.157,2.158
		C801.301,297.97,800.335,298.937,799.144,298.937z M801.665,288.076h-22.439c-1.191,0-2.157-0.967-2.157-2.158
		s0.966-2.157,2.157-2.157h22.439c1.191,0,2.158,0.966,2.158,2.157S802.856,288.076,801.665,288.076z"/>
</g>
<g>
	<path class="st0" d="M208.525,171.995c0,0-10.139,23.052-10.139,26.917c0,3.864,4.54,6.998,10.139,6.998
		c5.6,0,10.139-3.134,10.139-6.998C218.664,195.047,208.525,171.995,208.525,171.995z M208.525,197.34
		c-2.559,0-6.06,0.52-6.06-1.247s6.06-16.561,6.06-16.561s5.984,14.579,5.984,16.346C214.51,197.644,211.084,197.34,208.525,197.34z
		 M253.021,171.803c0,0-10.139,23.052-10.139,26.917c0,3.866,4.539,6.998,10.139,6.998s10.139-3.132,10.139-6.998
		C263.16,194.854,253.021,171.803,253.021,171.803z M253.021,197.149c-2.559,0-6.06,0.519-6.06-1.247
		c0-1.768,6.06-16.563,6.06-16.563s5.983,14.58,5.983,16.347S255.581,197.149,253.021,197.149z M260.37,161.718
		c0,0-3.603-2.077-5.3-0.847c-1.596,1.155-2.145,1.035-5.233-0.332c-3.476-1.539-8.465-3.742-16.403-1.417
		c-0.519-2.473-2.875-4.348-2.875-4.348s-2.536,2.019-2.926,4.628c-8.422-2.484-13.552-0.072-17.094,1.596
		c-3.056,1.438-3.602,1.572-5.224,0.454c-1.726-1.189-5.279,0.97-5.279,0.97s-0.755,4.09,0.971,5.28
		c2.224,1.532,4.27,2.071,6.126,2.071c2.589,0,4.811-1.047,6.64-1.907c3.384-1.594,6.881-3.239,14.043-0.372
		c-1.244,6.435-4.631,25.875-2.567,37.277c-1.314,1.152-2.228,2.75-2.503,4.559h-5.081c-1.166,0-2.11,0.945-2.11,2.11v0.959h-4.056
		c-1.801,0-3.26,1.459-3.26,3.261v3.26h3.26h38.429h3.26v-3.26c0-1.801-1.459-3.261-3.26-3.261h-5.29v-0.959
		c0-1.165-0.944-2.109-2.109-2.109h-4.773c-0.256-1.684-1.066-3.186-2.237-4.315c2.175-11.464-1.328-31.37-2.555-37.681
		c6.93-2.894,10.422-1.352,13.803,0.146c3.176,1.405,7.523,3.33,12.759-0.462C261.221,165.788,260.37,161.718,260.37,161.718z
		 M230.584,165.979c-1.399,0-2.535-1.136-2.535-2.535c0-1.4,1.136-2.534,2.535-2.534c1.4,0,2.535,1.134,2.535,2.534
		C233.119,164.844,231.984,165.979,230.584,165.979z"/>
</g>
<g>
	<path class="st1" d="M819.009,155.705h-52.36c-1.429,0-2.588,1.158-2.588,2.588v46.319c0,1.429,1.159,2.588,2.588,2.588h1.583
		v5.759c0,2.778,2.641,5.03,5.898,5.03c3.257,0,5.897-2.252,5.897-5.031V207.2h26.083v5.759c0,2.778,2.641,5.03,5.898,5.03
		c3.257,0,5.897-2.252,5.897-5.03V207.2h1.103c1.43,0,2.59-1.159,2.59-2.588v-46.319
		C821.599,156.863,820.438,155.705,819.009,155.705z M796.911,186.728c0.166-1.942,2.738-3.549,5.773-3.549s5.608,1.606,5.773,3.549
		H796.911z M816.222,196.898c0,2.327-1.886,4.213-4.213,4.213s-4.214-1.886-4.214-4.213s1.887-4.214,4.214-4.214
		S816.222,194.571,816.222,196.898z M814.981,166.09v18.355c0,1.134-0.828,2.072-1.911,2.249c-0.153-4.497-4.752-8.118-10.386-8.118
		c-5.648,0-10.255,3.639-10.388,8.151h-18.955c-1.26,0-2.281-1.022-2.281-2.282v-11h11.604c1.43,0,2.588-1.159,2.588-2.589v-7
		c0-0.018-0.002-0.032-0.002-0.048H812.7C813.96,163.809,814.981,164.83,814.981,166.09z M769.915,196.898
		c0-2.327,1.887-4.214,4.215-4.214c2.326,0,4.213,1.887,4.213,4.214s-1.887,4.213-4.213,4.213
		C771.802,201.111,769.915,199.226,769.915,196.898z"/>
</g>
<g>
	<path class="st1" d="M780.463,397.105h12.07c1.781,0,3.238-0.875,3.238-1.944c0-1.068-1.457-1.943-3.238-1.943h-12.07
		c-1.781,0-3.238,0.875-3.238,1.943C777.225,396.23,778.682,397.105,780.463,397.105z"/>
	<path class="st1" d="M797.387,399.468h-21.775c-1.781,0-3.24,1.458-3.24,3.239v35.617c0,1.782,1.459,3.239,3.24,3.239h13.377v-0.84
		v-2.45v-10.003c0-0.713,0.584-1.296,1.297-1.296h5.021c0.711,0,1.297,0.583,1.297,1.296v12.453c0,0.026-0.006,0.051-0.008,0.076
		v0.764h0.791c1.781,0,3.238-1.457,3.238-3.24v-35.616C800.625,400.926,799.168,399.468,797.387,399.468z M784.191,432.968
		c0,0.713-0.584,1.296-1.297,1.296h-5.021c-0.713,0-1.297-0.583-1.297-1.296v-5.021c0-0.714,0.584-1.297,1.297-1.297h5.021
		c0.713,0,1.297,0.583,1.297,1.297V432.968z M784.191,422.034c0,0.713-0.584,1.296-1.297,1.296h-5.021
		c-0.713,0-1.297-0.583-1.297-1.296v-5.021c0-0.713,0.584-1.297,1.297-1.297h5.021c0.713,0,1.297,0.584,1.297,1.297V422.034z
		 M784.191,410.694c0,0.714-0.584,1.297-1.297,1.297h-5.021c-0.713,0-1.297-0.583-1.297-1.297v-5.021
		c0-0.712,0.584-1.296,1.297-1.296h5.021c0.713,0,1.297,0.584,1.297,1.296V410.694z M796.604,422.034
		c0,0.713-0.586,1.296-1.297,1.296h-5.021c-0.713,0-1.297-0.583-1.297-1.296v-5.021c0-0.713,0.584-1.297,1.297-1.297h5.021
		c0.711,0,1.297,0.584,1.297,1.297V422.034z M796.604,410.694c0,0.714-0.586,1.297-1.297,1.297h-5.021
		c-0.713,0-1.297-0.583-1.297-1.297v-5.021c0-0.712,0.584-1.296,1.297-1.296h5.021c0.711,0,1.297,0.584,1.297,1.296V410.694z"/>
	<path class="st1" d="M786.535,390.717c1.07,0,1.945-0.509,1.945-1.131v-4.207c0-0.621-0.875-1.13-1.945-1.13
		c-1.066,0-1.943,0.509-1.943,1.13v4.207C784.592,390.208,785.467,390.717,786.535,390.717z"/>
</g>
<g>
	<path class="st1" d="M584.363,387.021c-2.021-3.791-6.711-5.043-10.9-4.736c-3.371,0.247-6.17,2.757-9.48,3.537
		c-1.787,0.422-3.447,0.583-5.283,0.2c-2.477-0.518-5.578-2.633-8.088-2.57c-3.586,0.089-6.137,1.999-7.588,5.405
		c-2.203,5.183-0.781,8.61,2.309,12.98c2.752,3.892,3.26,9.901,2.732,14.959c-0.66,6.335,1.895,11.615,4.666,17.51
		c2.02,2.355,3.922,4.832,6.105,7.023c1.57,1.573,3.385,0.846,3.766-1.373c0.193-1.116,0.145-2.313-0.016-3.443
		c-0.262-1.828-4.105-13.481-4.404-15.305c-0.383-2.35-0.627-5.591,0.576-8.302c2.061-4.645,9.707-3.224,10.596-0.042
		c1.15,4.124,0.635,9.957,0.24,12.083c-0.621,3.353-1.818,13.098-2.598,16.426c-0.152,0.657-0.146,1.749,0.236,2.032
		c0.449,0.333,1.414,0.093,2.111-0.075c0.541-0.129,1.139-0.425,1.502-0.831c1.68-1.885,3.611-3.645,4.859-5.794
		c3.953-6.798,6.559-13.982,5.443-21.636c-0.82-5.623-1.172-9.444,2.068-15.281C585.752,395.22,586.488,391.008,584.363,387.021z
		 M572.648,399.522l-3.055,5.587l-3.057-5.587l-5.586-3.056l5.586-3.057l3.057-5.588l3.055,5.588l5.59,3.057L572.648,399.522z"/>
</g>
<g>
	<path class="st0" d="M538.716,517.706v2.195c0,2.594,2.355,4.695,5.264,4.706v30.4h7.137v-23.734c0-1.787,1.463-3.249,3.25-3.249
		h0.024c1.789,0,3.251,1.462,3.251,3.249v23.734h6.703v-23.715c0-1.799,1.468-3.269,3.263-3.269s3.263,1.47,3.263,3.269v23.715
		h7.103v-30.4c2.909-0.011,5.264-2.112,5.264-4.706v-2.195H538.716z M586.92,512.552c0-0.439-0.359-0.798-0.798-0.798h-50.291
		c-0.439,0-0.798,0.358-0.798,0.798v1.887c0,0.439,0.358,0.798,0.798,0.798h50.291c0.438,0,0.798-0.358,0.798-0.798V512.552z
		 M591.681,501.06c0-0.69-0.564-1.256-1.256-1.256h-58.898c-0.69,0-1.255,0.565-1.255,1.256v7.057c0,0.691,0.564,1.256,1.255,1.256
		h58.898c0.691,0,1.256-0.564,1.256-1.256V501.06z"/>
</g>
<g>
	<path class="st0" d="M673.371,399.949c0.972-1.247,2.563-1.247,3.536,0l3.178,4.081c0.973,1.249,1.769,0.976,1.769-0.607v-9.937
		c0-1.582-0.646-3.997-1.437-5.368l-3.84-6.659c-0.79-1.37-2.085-1.37-2.875,0l-3.84,6.659c-0.79,1.371-1.438,3.786-1.438,5.368
		v9.937c0,1.583,0.796,1.856,1.769,0.607L673.371,399.949z M690.568,421.037l-13.661-17.533c-0.973-1.249-2.563-1.249-3.536,0
		l-13.66,17.533c-0.972,1.25-1.768,3.564-1.768,5.147v16.319c0,1.582,1.294,2.877,2.877,2.877h5.8c1.583,0,2.877-1.295,2.877-2.877
		v-0.837h0.049v-6.689c0-1.582,0.761-3.926,1.688-5.206l2.201-3.036c0.927-1.281,2.449-1.283,3.383-0.006l2.219,3.046
		c0.933,1.278,1.695,3.62,1.695,5.202v6.688h0.051v0.838c0,1.582,1.294,2.877,2.877,2.877h5.801c1.582,0,2.876-1.295,2.876-2.877
		v-16.319C692.335,424.602,691.54,422.287,690.568,421.037z M677.175,417.387c0,0.576-0.472,1.047-1.047,1.047h-1.979
		c-0.574,0-1.047-0.471-1.047-1.047v-2.436c0-0.576,0.277-1.429,0.614-1.896l0.802-1.106c0.337-0.466,0.892-0.466,1.23-0.002
		l0.81,1.11c0.339,0.466,0.616,1.317,0.616,1.894V417.387z"/>
</g>
<g>
	<path class="st1" d="M240.821,520.47c-0.253,0-0.507-0.008-0.762-0.024c-1.122-0.075-1.971-1.045-1.896-2.167
		c0.074-1.123,1.047-1.973,2.167-1.897c2.208,0.146,4.317-0.708,5.795-2.345c1.282-1.421,1.935-3.254,1.837-5.164
		c-0.098-1.909-0.933-3.667-2.353-4.948c-2.93-2.646-7.466-2.414-10.11,0.517c-0.754,0.835-2.042,0.9-2.877,0.146
		c-0.835-0.754-0.901-2.042-0.147-2.877c4.15-4.597,11.267-4.96,15.864-0.81c2.227,2.01,3.538,4.768,3.691,7.764
		c0.152,2.997-0.87,5.874-2.881,8.101C247,519.144,244,520.47,240.821,520.47z M225.931,528.51l14.304-15.993
		c2.532-2.831,1.496-5.146-2.302-5.146h-38.098c-3.797,0-4.834,2.315-2.302,5.146l14.303,15.993
		c2.531,2.831,4.603,8.254,4.603,12.052v4.077c0,3.798-2.896,8.03-6.437,9.405l-0.663,0.257c-3.539,1.375-3.328,2.501,0.469,2.501
		h18.151c3.797,0,4.008-1.126,0.469-2.501l-0.663-0.257c-3.54-1.375-6.437-5.607-6.437-9.405v-4.077
		C221.329,536.765,223.4,531.341,225.931,528.51z M216.582,524.174c-2.939,0-5.322-1.899-5.322-4.244
		c0-2.343,2.382-4.242,5.322-4.242c2.94,0,5.322,1.899,5.322,4.242C221.904,522.274,219.522,524.174,216.582,524.174z"/>
</g>
<g>
	<path class="st0" d="M367.744,555.622l-2.761,2.761c-1.016,1.017-3.055,0.626-4.552-0.872c-1.279-1.279-1.748-2.952-1.223-4.046
		l-7.711-7.712c-4.996,5.226-5.743,7.148-5.743,7.148c-1.146,2.948-2.458,2.8-2.915-0.33c0,0-0.709-4.876,3.028-10.369l-9.415-8.396
		l-9.541,8.506c3.737,5.492,3.027,10.366,3.027,10.366c-0.456,3.131-1.767,3.28-2.913,0.33c0,0-0.747-1.922-5.745-7.15l-7.711,7.711
		c0.526,1.095,0.059,2.769-1.222,4.05c-1.497,1.497-3.536,1.888-4.552,0.872l-2.761-2.761c-1.017-1.017-0.625-3.054,0.871-4.552
		c1.28-1.28,2.952-1.747,4.046-1.224l7.712-7.712c-5.226-4.994-7.146-5.743-7.146-5.743c-2.95-1.145-2.801-2.456,0.33-2.912
		c0,0,4.875-0.711,10.368,3.026l8.146-9.132l-22.475-20.046l-1.601-11.679l11.718,1.974l19.439,21.811l19.54-21.908l11.68-1.601
		l-1.976,11.717l-22.153,19.746l8.031,9.011c5.493-3.736,10.369-3.025,10.369-3.025c3.13,0.456,3.278,1.766,0.329,2.911
		c0,0-1.921,0.747-7.149,5.743l7.712,7.713c1.095-0.525,2.768-0.058,4.047,1.223C368.369,552.567,368.76,554.605,367.744,555.622z"
		/>
</g>
<g>
	<path class="st1" d="M673.582,545.869c15.138-1.934,28.002-0.723,28.318,0.404c1.241,4.441-2.383,8.385-5.295,8.385h-44.573
		c-2.913,0-7.28-4.221-5.296-8.385C647.462,544.751,660.562,547.532,673.582,545.869z M646.4,526.479
		c-1.984,1.439,3.881,0.852,5.296,2.898c1.332,1.928,2.902,4.814,3.773,4.013c1.324-1.22,4.635-4.579,17.138-3.901
		c1.923,0.103,23.661-0.111,23.661-0.111c2.914,0,7.175-1.909,5.932-3.445c-0.316-0.391-5.002-0.486-29.003-1.398
		C660.149,524.037,647.127,525.952,646.4,526.479z M700.656,521.276c-0.574-0.042-1.238-0.076-2.022-0.117
		c-2.711-0.141-7.19-0.309-14.611-0.586c-3.057-0.113-6.606-0.246-10.725-0.402c-1.452-0.056-2.966-0.083-4.501-0.083
		c-6.735,0-12.622,0.535-15.53,0.854c-2.055,0.225-3.585,0.433-4.737,0.622c-1.918-0.51-1.903-2.643-1.903-5.179
		c0,0,0-16.245,27.584-16.23c27.589,0.016,27.579,16.23,27.579,16.23C701.789,518.583,701.87,520.479,700.656,521.276z
		 M656.884,516.581c0-0.487-0.725-0.883-1.618-0.883s-1.618,0.396-1.618,0.883s0.725,0.882,1.618,0.882
		S656.884,517.068,656.884,516.581z M662.457,511.506c0-0.487-0.724-0.883-1.618-0.883c-0.894,0-1.618,0.396-1.618,0.883
		s0.725,0.882,1.618,0.882C661.733,512.388,662.457,511.993,662.457,511.506z M666.43,514.448c0-0.488-0.725-0.883-1.618-0.883
		c-0.895,0-1.618,0.395-1.618,0.883c0,0.486,0.725,0.882,1.618,0.882S666.43,514.935,666.43,514.448z M672.253,504.224
		c0-0.487-0.401-0.883-0.896-0.883s-0.896,0.396-0.896,0.883s0.401,0.883,0.896,0.883S672.253,504.711,672.253,504.224z
		 M677.444,510.623c0-0.486-0.725-0.883-1.618-0.883s-1.618,0.396-1.618,0.883c0,0.487,0.725,0.883,1.618,0.883
		S677.444,511.11,677.444,510.623z M685.773,506.872c0-0.609-0.758-1.104-1.691-1.104c-0.935,0-1.691,0.494-1.691,1.104
		s0.757,1.104,1.691,1.104C685.016,507.976,685.773,507.481,685.773,506.872z M690.187,513.933c0-0.487-0.725-0.883-1.617-0.883
		c-0.895,0-1.618,0.396-1.618,0.883s0.724,0.883,1.618,0.883C689.462,514.815,690.187,514.421,690.187,513.933z M701.834,533.835
		c-1.81,0.909-4.011,1.347-5.565,1.347c-0.115,0.001-14.132,0.138-20.571,0.138c-0.001,0-0.001,0-0.002,0
		c-2.36,0-2.974-0.018-3.231-0.032c-1.045-0.056-2.06-0.085-3.015-0.085c-8.636,0-11.057,2.242-12.091,3.199l-0.102,0.094
		c-0.585,0.537-1.339,0.834-2.121,0.834c-2.14,0-3.415-1.946-4.889-4.202c-0.226-0.344-0.448-0.686-0.666-1.004
		c-0.397-0.272-1.666-0.533-2.287-0.662c-0.552-0.115-1.153-0.24-1.717-0.446c-1.539,1.367-2.611,2.638-2.611,4.097
		c0,2.024,2.108,3.162,4.564,3.68c12.492,2.643,35.708-2.442,49.569-0.701c5.591,0.701,6.473-0.954,6.473-2.979
		C703.572,535.947,702.891,534.903,701.834,533.835z"/>
</g>
<g>
	<circle class="st1" cx="439.48" cy="512.861" r="3.6"/>
	<circle class="st1" cx="458.266" cy="512.861" r="3.6"/>
	<path class="st1" d="M450.272,553.795c0,1.048,0.252,1.966,0.674,2.628c-0.736,0.13-1.488,0.199-2.254,0.199
		c-0.722,0-1.434-0.064-2.131-0.179c0.428-0.664,0.686-1.591,0.686-2.648c0-0.088-0.003-0.173-0.007-0.258
		c0.473,0.114,0.959,0.173,1.453,0.173c0.542,0,1.072-0.075,1.588-0.211C450.276,553.597,450.272,553.694,450.272,553.795z
		 M462.913,523.491l0.065-0.025c6.321,6.019,4.847,21.442,4.021,21.851c-0.661,0.328-1.54-0.629-3.609-1.198
		c-0.95,3.198-2.593,5.997-4.711,8.132c-0.365-1.303-1.188-2.171-2.196-2.171c-0.795,0-1.473,0.541-1.905,1.406
		c-0.104-0.21-0.223-0.402-0.354-0.57c2.34-2.648,3.862-6.931,3.862-11.767c0-8.04-4.206-9.254-9.393-9.254
		c-5.188,0-9.394,1.214-9.394,9.254c0,4.889,1.555,9.21,3.937,11.851c-0.108,0.147-0.205,0.313-0.294,0.49
		c-0.431-0.867-1.111-1.408-1.907-1.408c-1.034,0-1.875,0.912-2.225,2.271c-2.349-2.326-4.13-5.46-5.044-9.056
		c-2.336,0.55-3.278,1.639-3.977,1.293c-0.817-0.404-2.273-15.56,3.858-21.688c-3.177-2.403-5.226-5.565-5.549-9.064
		c-1.493-4.322,0.2-14.22,0.2-14.22s3.099,0.906,6.624,2.317c3.653-2.326,8.479-3.744,13.772-3.744
		c5.287,0,10.108,1.414,13.761,3.738c3.52-1.408,6.609-2.312,6.609-2.312s1.667,9.745,0.234,14.121
		C468.981,517.572,466.592,521.007,462.913,523.491z M446.977,512.861c0-4.141-3.355-7.497-7.497-7.497
		c-4.14,0-7.497,3.356-7.497,7.497s3.356,7.498,7.497,7.498C443.621,520.359,446.977,517.002,446.977,512.861z M451.844,521.459
		l-2.05-1.783c-0.604-0.526-1.593-0.526-2.198,0l-2.049,1.783c-0.605,0.526-0.706,1.482-0.226,2.124l2.5,3.339
		c0.481,0.641,1.269,0.641,1.749,0l2.499-3.339C452.55,522.941,452.448,521.984,451.844,521.459z M465.705,512.861
		c0-4.141-3.356-7.497-7.497-7.497c-4.142,0-7.496,3.356-7.496,7.497s3.356,7.498,7.496,7.498
		C462.349,520.359,465.705,517.002,465.705,512.861z M444.846,551.053c-0.79,0-1.429,1.228-1.429,2.742s0.64,2.742,1.429,2.742
		s1.429-1.229,1.429-2.742C446.275,552.28,445.636,551.053,444.846,551.053z M441.035,551.053c-0.79,0-1.428,1.228-1.428,2.742
		s0.639,2.742,1.428,2.742s1.43-1.229,1.43-2.742C442.465,552.28,441.824,551.053,441.035,551.053z M456.483,551.053
		c-0.789,0-1.43,1.228-1.43,2.742s0.641,2.742,1.43,2.742c0.79,0,1.429-1.229,1.429-2.742
		C457.912,552.28,457.273,551.053,456.483,551.053z M452.673,551.053c-0.789,0-1.429,1.228-1.429,2.742s0.64,2.742,1.429,2.742
		s1.43-1.229,1.43-2.742C454.103,552.28,453.462,551.053,452.673,551.053z"/>
</g>
<g>
	<path class="st0" d="M813.528,556.343c0,1.583-1.294,2.877-2.877,2.877h-49.673c-1.583,0-2.877-1.294-2.877-2.877v-12.274
		c0-1.583,1.294-2.877,2.877-2.877h49.673c1.583,0,2.877,1.294,2.877,2.877V556.343z M816.683,509.377
		c1.062,1.174,0.635,2.134-0.948,2.134h-59.647c-1.581,0-2.009-0.96-0.946-2.134l10.528-11.651c1.062-1.173,3.225-2.134,4.807-2.134
		h30.871c1.583,0,3.745,0.961,4.806,2.134L816.683,509.377z M756.088,514.388c-1.582,0-2.877,0.015-2.878,0.032c0,0,0,0,0,0.016
		c0,3.579,2.902,6.48,6.481,6.48c3.448,0,5.19-3.514,5.19-3.514c0.702-1.418,1.853-1.418,2.555,0c0,0,1.742,3.514,5.19,3.514
		c3.449,0,5.191-3.515,5.191-3.515c0.702-1.418,1.852-1.418,2.554,0c0,0,1.742,3.515,5.191,3.515c3.448,0,5.19-3.516,5.19-3.516
		c0.701-1.418,1.853-1.418,2.554,0c0,0,1.743,3.516,5.192,3.516c3.448,0,5.189-3.514,5.189-3.514c0.703-1.418,1.853-1.418,2.555,0
		c0,0,1.742,3.514,5.191,3.514c3.579,0,6.48-2.901,6.48-6.48c0-0.016,0-0.016,0-0.016c-0.001-0.018-1.296-0.032-2.878-0.032H756.088
		L756.088,514.388z M805.901,521.922c-0.513-0.405-1.349-0.41-1.853-0.01c-0.506,0.401-2.219,1.866-2.219,2.656v12.557
		c0,0.791,0.646,1.438,1.438,1.438h3.452c0.791,0,1.438-0.647,1.438-1.438v-12.538C808.158,523.797,806.416,522.328,805.901,521.922
		z M766.968,521.922c-0.514-0.405-1.349-0.41-1.854-0.01c-0.505,0.401-2.218,1.866-2.218,2.656v12.557
		c0,0.791,0.646,1.438,1.438,1.438h3.452c0.791,0,1.438-0.647,1.438-1.438v-12.538C769.225,523.797,767.481,522.328,766.968,521.922
		z"/>
</g>
<path class="st1" d="M935.405,292.918l-27.008-0.005v-9.069c0-0.002,0-0.004,0-0.006s0-0.003,0-0.004
	c0.002-2.914,2.373-5.284,5.287-5.284c2.915,0,5.287,2.372,5.287,5.288c0,1.609,1.306,2.915,2.915,2.915
	c1.61,0,2.915-1.306,2.916-2.915c0-6.131-4.987-11.118-11.118-11.118c-1.9,0-3.69,0.48-5.256,1.324
	c0.405-5.715,5.182-10.241,10.997-10.241c6.082,0,11.029,4.948,11.029,11.029c0,1.609,1.306,2.915,2.915,2.915
	c1.61,0,2.915-1.305,2.915-2.915c0-9.296-7.563-16.859-16.859-16.859c-5.79,0-10.907,2.936-13.944,7.395
	c-3.036-4.459-8.153-7.395-13.943-7.395c-9.297,0-16.859,7.563-16.859,16.859c0,1.609,1.305,2.915,2.915,2.915
	s2.915-1.305,2.915-2.915c0-6.081,4.947-11.029,11.029-11.029c5.816,0,10.592,4.526,10.997,10.241
	c-1.565-0.844-3.355-1.324-5.255-1.324c-6.131,0-11.118,4.987-11.118,11.118c0,1.609,1.305,2.915,2.915,2.915
	s2.916-1.306,2.916-2.915c0-2.916,2.371-5.288,5.287-5.288c2.911,0,5.28,2.366,5.286,5.276v9.123l-27.493,0.006
	c-3.474,0.001-5.277,4.632-1.81,4.427c1.415-0.084,8.081-1.14,10.335,5.013c3.49,9.529,16.134,5.743,17.229,9.293
	c1.039,3.366,2.244,7.729-6.439,7.896c-0.642,0.012-2.343,0.541-2.587,2.562l-0.087,1.386l27.119-0.007l-0.027-1.074
	c0-2.437-2.024-2.89-2.716-2.903c-8.685-0.166-7.479-4.529-6.44-7.895c1.096-3.55,13.739,0.236,17.229-9.294
	c2.254-6.151,8.92-5.097,10.335-5.013C940.683,297.552,938.879,292.919,935.405,292.918z"/>
<g>
	<path class="st0" d="M924.434,207.498H884.85c-1.86,0-3.383,0.932-3.383,2.072c0,1.139,1.521,2.072,3.383,2.072h39.584
		c1.86,0,3.383-0.934,3.383-2.072C927.816,208.43,926.294,207.498,924.434,207.498z"/>
	<path class="st0" d="M935.517,173.281l-11.276,3.313c-1.584,0.467-2.801,2.193-2.704,3.842l0.338,5.826
		c0.097,1.646-1.175,2.994-2.825,2.994h-4.418c-1.65,0-2.633-1.299-2.185-2.887l1.953-6.92c0.449-1.588,0.099-4.031-0.778-5.428
		l-6.846-10.922c-0.877-1.398-2.309-1.396-3.183,0.002l-6.818,10.916c-0.875,1.4-1.225,3.844-0.777,5.434l1.946,6.916
		c0.446,1.59-0.538,2.889-2.188,2.889h-4.381c-1.649,0-2.922-1.348-2.826-2.994l0.338-5.826c0.096-1.648-1.121-3.377-2.704-3.844
		l-11.218-3.309c-1.582-0.467-2.469,0.438-1.968,2.01l8.566,26.939c0.5,1.572,2.259,2.857,3.909,2.857h16.709c1.65,0,4.35,0,6,0
		h16.791c1.65,0,3.41-1.285,3.912-2.857c2.149-6.734,8.599-26.939,8.599-26.939C937.984,173.721,937.1,172.814,935.517,173.281z
		 M892.092,201.574c-1.685,0-3.051-1.365-3.051-3.049c0-1.686,1.366-3.051,3.051-3.051s3.05,1.365,3.05,3.051
		C895.142,200.209,893.776,201.574,892.092,201.574z M905.241,200.779l-4.8-4.801l4.8-4.799l4.8,4.799L905.241,200.779z
		 M918.392,201.475c-1.63,0-2.95-1.32-2.95-2.949c0-1.631,1.32-2.951,2.95-2.951s2.95,1.32,2.95,2.951
		C921.342,200.154,920.021,201.475,918.392,201.475z"/>
</g>
<path class="st1" d="M923.506,513.843c0-5.951-4.597-10.842-10.412-11.285c0.973-1.486,1.619-3.073,1.476-4.723
	c-8.98,1.105-16.714,0.987-16.714,0.987s-7.732,0.118-16.714-0.987c-0.144,1.649,0.504,3.236,1.477,4.723
	c-5.814,0.444-10.412,5.334-10.412,11.285c0,3.979,2.057,7.482,5.156,9.502c-2.447,8.219,2.786,17.84,13.436,25.871
	c-4.136,1.055-6.915,3.007-6.915,5.243c0,1.679,6.987,2.518,13.973,2.518c6.987,0,13.974-0.839,13.974-2.518
	c0-2.235-2.779-4.188-6.915-5.243c10.649-8.031,15.883-17.652,13.437-25.871C921.45,521.325,923.506,517.821,923.506,513.843z
	 M876.764,513.843c0-3.73,3.014-6.765,6.717-6.765c1.719,0,3.288,0.654,4.478,1.728c1.053,1.348,1.404,2.416,0.068,3.119
	c-3.971,2.087-6.824,4.55-8.667,7.254C877.781,517.939,876.764,516.009,876.764,513.843z M912.096,534.381
	c-3.013,7.348-10.568,12.319-10.568,12.319s4.216-4.7,7.152-12.079c2.003-5.03,0.552-9.456,0.552-9.456
	S915.109,527.033,912.096,534.381z M916.353,519.179c-1.843-2.704-4.697-5.167-8.667-7.254c-1.336-0.703-0.984-1.771,0.068-3.119
	c1.188-1.074,2.759-1.728,4.478-1.728c3.704,0,6.717,3.034,6.717,6.765C918.948,516.009,917.931,517.939,916.353,519.179z"/>
<path class="st0" d="M917.276,420.63c-0.431-3.935-1.733-7.626-3.296-11.229c-3.271-7.539-7.655-14.432-12.377-21.123
	c-1.176-1.668-2.418-3.289-3.7-5.028c-0.215,0.243-0.315,0.343-0.4,0.455c-3.459,4.56-6.746,9.238-9.696,14.146
	c-3.38,5.623-6.396,11.418-8.308,17.729c-1.472,4.856-1.782,9.715,0.136,14.525c5.414,13.58,22.699,16.641,32.469,6.294
	C916.271,431.983,917.938,426.662,917.276,420.63z M894.322,433.167c-0.694,1.078-2.004,1.588-3.397,1.307
	c-1.679-0.34-3.007-1.223-3.921-2.682c-2.424-3.866-3.084-7.997-2.004-12.454c0.931-3.839,2.541-7.394,4.272-10.909
	c0.04-0.083,0.113-0.15,0.065-0.089c-0.203,2.365-0.569,4.85-0.598,7.339c-0.049,4.355,1.375,8.31,3.758,11.931
	c0.496,0.751,1.024,1.48,1.527,2.227C894.734,430.89,895.081,431.987,894.322,433.167z"/>
</svg>
