<?xml version="1.0" encoding="utf-8"?>
<!-- Generator: Adobe Illustrator 16.0.0, SVG Export Plug-In . SVG Version: 6.00 Build 0)  -->
<!DOCTYPE svg PUBLIC "-//W3C//DTD SVG 1.1//EN" "http://www.w3.org/Graphics/SVG/1.1/DTD/svg11.dtd">
<svg version="1.1" id="zoo" xmlns="http://www.w3.org/2000/svg" xmlns:xlink="http://www.w3.org/1999/xlink" x="0px" y="0px"
	 width="512px" height="512px" viewBox="0 0 512 512" style="enable-background:new 0 0 512 512;" xml:space="preserve">
<style type="text/css">
<![CDATA[
	.st0{fill:#1F7499;}
]]>
</style>
<g>
	<path class="st0" d="M496.977,218.727l-16.021-27.768c-6.441-11.142-17.673-17.788-30.038-17.788
		c-7.562,0-14.905,2.484-21.249,7.208l-58.208,43.313c-8.394,6.266-13.368,15.103-14.006,24.881
		c-0.64,9.776,3.158,19.174,10.67,26.483l55.854,54.213c6.432,6.238,14.4,9.68,22.45,9.68c10.923,0,20.646-6.014,26.711-16.502
		l23.835-41.309C507.085,263.648,507.085,236.247,496.977,218.727z"/>
	<path class="st0" d="M147.683,322.189c0.637-9.779-3.146-19.178-10.669-26.482L66.96,227.743
		c-6.417-6.238-14.387-9.676-22.42-9.676c-10.925,0-20.664,6.03-26.726,16.501l-0.789,1.375c-10.11,17.49-10.11,44.893,0,62.411
		l35.039,60.68c6.442,11.156,17.673,17.803,30.037,17.803c7.561,0,14.905-2.496,21.25-7.209l30.313-22.561
		C142.054,340.803,147.046,331.967,147.683,322.189z"/>
	<path class="st0" d="M171.005,276.25c7.92,7.691,19.279,12.096,31.105,12.123c9.678,0,18.972-2.98,26.214-8.381l185.15-137.811
		c16.796-12.503,21.952-37.408,11.485-55.537l-9.625-16.679c-10.111-17.469-33.856-31.194-54.062-31.194H174.968
		c-20.196,0-43.939,13.728-54.051,31.194l-39.694,68.806c-10.29,17.785-6.648,43.912,8.121,58.234L171.005,276.25z M139.048,142.615
		l16.848-28.493c7.979-13.534,28.021-24.968,43.731-24.968h135.776c17.099,0,33.474,7.5,37.486,14.224
		c3.5,5.894-1.824,19.39-14.187,28.646l-127.551,95.491c-5.261,3.975-12.188,6.139-19.505,6.139c-8.632,0-16.858-3.03-22.549-8.276
		l-43.813-40.386C134.301,174.853,131.46,155.462,139.048,142.615z"/>
	<path class="st0" d="M342.366,291.43c-7.931-7.688-19.264-12.096-31.117-12.096c-9.648,0-18.957,2.953-26.213,8.354L127.77,404.742
		c-17.063,12.709-24.165,33.539-16.169,47.418c7.471,12.936,29.168,23.068,49.36,23.068h186.313
		c20.216,0,43.95-13.729,54.032-31.219l16.668-28.828c10.272-17.799,6.632-43.926-8.113-58.234L342.366,291.43z M365.692,412.512
		l-1.309,2.215c-8.035,13.521-28.086,24.955-43.813,24.955H192.397c-15.776,0-27.579-2.773-31.512-4.762
		c1.488-3.361,7.535-11.051,18.754-19.275l104.962-77.004c5.3-3.871,12.252-6.033,19.594-6.033c8.76,0,17.077,3.027,22.854,8.301
		l32.364,29.463C370.414,380.402,373.294,399.703,365.692,412.512z"/>
</g>
</svg>
