<?xml version="1.0" encoding="utf-8"?>
<!-- Generator: Adobe Illustrator 16.0.0, SVG Export Plug-In . SVG Version: 6.00 Build 0)  -->
<!DOCTYPE svg PUBLIC "-//W3C//DTD SVG 1.1//EN" "http://www.w3.org/Graphics/SVG/1.1/DTD/svg11.dtd">
<svg version="1.1" id="zoo" xmlns="http://www.w3.org/2000/svg" xmlns:xlink="http://www.w3.org/1999/xlink" x="0px" y="0px"
	 width="2407.121px" height="352.621px" viewBox="0 0 2407.121 352.621" style="enable-background:new 0 0 2407.121 352.621;"
	 xml:space="preserve">
<style type="text/css">
<![CDATA[
	.st0{fill:#D1D1D1;}
	.st1{fill:#3EA1CC;}
]]>
</style>
<g>
	<path class="st0" d="M592.7,176.108c0-32.87-6.228-56.923-19.027-73.531c-12.098-15.691-29.863-23.988-51.379-23.988
		c-19.084,0-35.421,6.631-47.244,19.172l-4.366,4.63l-4.366-4.63c-11.823-12.541-28.159-19.172-47.241-19.172
		c-21.517,0-39.283,8.297-51.384,23.99c-12.803,16.604-19.025,40.657-19.025,73.529v72.063c0,10.367,8.435,18.801,18.802,18.801
		c10.363,0,18.799-8.434,18.799-18.801v-72.063c0-29.796,6.094-43.947,11.205-50.579c3.354-4.351,8.84-9.344,21.604-9.344
		c12.765,0,18.25,4.993,21.604,9.346c5.109,6.632,11.203,20.785,11.203,50.577v72.063c0,10.367,8.434,18.801,18.801,18.801
		c10.366,0,18.801-8.434,18.801-18.801v-72.063c0-29.798,6.094-43.952,11.205-50.579c3.354-4.351,8.841-9.344,21.604-9.344
		c12.765,0,18.252,4.993,21.604,9.346c5.111,6.632,11.207,20.785,11.207,50.577v72.063c0,10.367,8.435,18.801,18.801,18.801
		c10.365,0,18.8-8.434,18.8-18.801L592.7,176.108L592.7,176.108z"/>
</g>
<g>
	<path class="st0" d="M933.077,77.213c-17.87,0-35.327,4.996-50.484,14.449l-6.258,3.9l-2.549-6.922
		c-2.713-7.369-9.797-12.32-17.627-12.32c-10.363,0-18.799,8.436-18.799,18.803v76.922c-0.002,0.25-0.01,0.438-0.018,0.629
		l-0.008,0.279l0.008,0.278c0.008,0.188,0.016,0.378,0.018,0.563V333.82c0,10.359,8.436,18.799,18.799,18.799
		c10.367,0,18.803-8.438,18.803-18.799v-84.128l9.082,5.438c14.803,8.865,31.76,13.551,49.033,13.551
		c52.791,0,95.74-42.941,95.74-95.73C1028.818,120.161,985.868,77.213,933.077,77.213z M933.077,231.088
		c-31.502,0-57.57-25.627-58.115-57.127v-1.969v-0.057c0.545-31.498,26.615-57.127,58.115-57.127
		c32.061,0,58.143,26.084,58.143,58.145C991.217,205.01,965.135,231.088,933.077,231.088z"/>
</g>
<g>
	<path class="st1" d="M299.127,144.436l-9.828-17.037c-3.953-6.836-10.843-10.914-18.431-10.914c-4.639,0-9.146,1.522-13.035,4.425
		l-35.716,26.571c-5.148,3.847-8.201,9.269-8.594,15.269c-0.392,6,1.938,11.764,6.547,16.25l34.271,33.262
		c3.945,3.828,8.836,5.938,13.772,5.938c6.702,0,12.669-3.688,16.392-10.125l14.623-25.346
		C305.332,171.997,305.332,155.184,299.127,144.436z"/>
	<path class="st1" d="M84.816,207.915c0.391-6-1.929-11.766-6.546-16.248L35.29,149.968c-3.937-3.827-8.827-5.938-13.756-5.938
		c-6.703,0-12.678,3.701-16.396,10.125L4.653,155c-6.203,10.729-6.203,27.543,0,38.293l21.498,37.229
		c3.953,6.847,10.843,10.923,18.429,10.923c4.64,0,9.146-1.529,13.038-4.423L76.22,223.18
		C81.363,219.336,84.426,213.915,84.816,207.915z"/>
	<path class="st1" d="M99.126,179.729c4.86,4.721,11.829,7.424,19.085,7.438c5.938,0,11.641-1.828,16.084-5.143l113.601-84.557
		c10.305-7.67,13.468-22.95,7.047-34.073l-5.905-10.231c-6.203-10.72-20.771-19.142-33.17-19.142h-114.31
		c-12.392,0-26.959,8.422-33.162,19.142L44.041,95.378c-6.313,10.914-4.079,26.94,4.983,35.729L99.126,179.729z M79.521,97.736
		l10.336-17.481c4.896-8.303,17.193-15.317,26.833-15.317h83.306c10.491,0,20.538,4.604,23,8.729
		c2.148,3.615-1.117,11.896-8.701,17.576l-78.26,58.588c-3.228,2.438-7.477,3.767-11.968,3.767c-5.296,0-10.343-1.857-13.835-5.078
		l-26.881-24.777C76.606,117.516,74.863,105.62,79.521,97.736z"/>
	<path class="st1" d="M204.268,189.042c-4.867-4.717-11.82-7.42-19.092-7.42c-5.922,0-11.632,1.811-16.083,5.125L72.6,258.565
		c-10.469,7.797-14.826,20.576-9.92,29.094c4.584,7.938,17.896,14.152,30.285,14.152h114.313c12.404,0,26.966-8.422,33.152-19.15
		l10.226-17.689c6.306-10.92,4.07-26.949-4.977-35.729L204.268,189.042z M218.578,263.333l-0.803,1.357
		c-4.929,8.299-17.23,15.313-26.881,15.313H112.25c-9.679,0-16.921-1.701-19.334-2.92c0.914-2.064,4.624-6.781,11.507-11.828
		l64.4-47.246c3.251-2.375,7.517-3.703,12.022-3.703c5.375,0,10.477,1.859,14.021,5.096l19.859,18.074
		C221.477,243.631,223.243,255.475,218.578,263.333z"/>
</g>
<path class="st1" d="M2201.432,77.982c-22.725,0-43.627,7.937-60.096,21.172v-4.528c0-9.94-8.061-18-18-18s-18,8.06-18,18v158.916
	c0,9.939,8.061,18,18,18s18-8.061,18-18v-79.457c0-33.142,26.959-60.103,60.096-60.103c9.941,0,18-8.06,18-18
	C2219.432,86.044,2211.375,77.982,2201.432,77.982z"/>
<path class="st1" d="M1447.525,172.073c0-52.039-42.34-94.378-94.385-94.378c-22.012,0-42.287,7.574-58.357,20.259V18.002
	c0-9.941-8.061-18-18-18s-18,8.059-18,18v152.531c-0.008,0.514-0.021,1.021-0.021,1.539c0,0.131,0.018,0.256,0.021,0.387v79.199
	c0,9.938,8.061,18,18,18s18-8.063,18-18v-80.355c0.414-31.834,26.428-57.605,58.357-57.605c32.188,0,58.377,26.184,58.385,58.361
	c0,0.004,0,0.012,0,0.016v79.252c0,9.938,8.059,18,18,18c9.939,0,18-8.063,18-18v-79.23
	C1447.525,172.085,1447.525,172.079,1447.525,172.073z"/>
<path class="st1" d="M1799.543,165.275c12.615-15.313,20.203-34.922,20.203-56.269c0-9.94-8.063-18-18-18c-9.941,0-18,8.06-18,18
	c0,28.591-22.924,51.912-51.354,52.593V21.385c0-9.941-8.059-18-18-18c-9.939,0-18,8.059-18,18v229.232
	c0,0.141,0.02,0.273,0.021,0.418c-0.012,0.555-0.021,1.105-0.021,1.666c0,9.938,8.061,18,18,18c9.941,0,18-8.063,18-18
	c0-29.021,23.607-52.623,52.623-52.623c29.021,0,52.627,23.604,52.627,52.623c0,9.938,8.061,18,18,18c9.941,0,18-8.063,18-18
	C1873.646,208.782,1841.527,172.227,1799.543,165.275z"/>
<g>
	<path class="st1" d="M1985.773,271.77c-3.213,0-6.438-0.152-9.676-0.473c-53.607-5.248-92.953-53.123-87.709-106.721
		c2.541-25.971,15.041-49.395,35.197-65.959c20.156-16.566,45.553-24.293,71.525-21.75c27.518,2.689,52.711,17.006,69.123,39.268
		c5.27,7.146,4.539,17.072-1.725,23.371l-48.508,48.793c-7.012,7.051-18.406,7.084-25.457,0.076
		c-7.051-7.012-7.084-18.406-0.074-25.457l36.275-36.488c-9.365-7.688-20.893-12.535-33.146-13.734
		c-16.395-1.604-32.436,3.273-45.162,13.734c-12.73,10.461-20.621,25.252-22.229,41.65c-3.313,33.846,21.531,64.072,55.385,67.389
		c16.396,1.602,32.438-3.275,45.162-13.734c7.686-6.313,19.023-5.201,25.336,2.479c6.313,7.682,5.201,19.023-2.479,25.336
		C2029.979,264.045,2008.314,271.77,1985.773,271.77z"/>
</g>
<g>
	<path class="st1" d="M1226.131,193.092c-8.74-17.199-28.896-28.16-67.408-36.646c-4.057-0.895-8.865-1.957-13.771-3.072
		c-6.447-1.473-13.363-3.094-20.25-4.986c-2.762-0.76-5.688-1.646-8.949-2.717c-0.393-0.129-0.781-0.254-1.176-0.381
		c-4.213-1.359-8.568-2.768-11.938-6.197c-2.037-2.078-3.029-4.609-2.879-7.328c0.188-3.293,2.045-6.604,5.102-9.084
		c1.516-1.229,3.211-2.287,5.188-3.244c6.568-3.182,14.082-4.664,21.225-5.797c1.938-0.309,3.902-0.566,5.836-0.771
		c3.125-0.334,6.295-0.496,9.688-0.496c3.428,0,7.104,0.17,11.24,0.52c6.91,0.588,12.242,1.711,17.828,3.762
		c7.119,2.611,12.98,6.547,18.139,12.166c3.771,4.111,5.41,8.283,11.754,8.283c0.473,0,0.953-0.02,1.426-0.061
		c1.592-0.139,3.082-0.377,4.434-0.721c4.393-1.104,8.26-4.188,10.607-8.463c1.123-2.045,1.725-4.234,1.781-6.512
		c0.029-1.084-0.053-2.273-0.252-3.646c-0.043-0.301-0.082-0.605-0.123-0.926c-0.125-0.998-0.254-2.025-0.547-2.814
		c-4.041-10.902-14.633-25.396-42.151-32.563c-9.875-2.568-20.672-3.873-32.094-3.873c-7.76,0-15.588,0.617-23.268,1.834
		c-37.223,5.896-60.752,24.558-61.408,48.69c-0.547,20.236,7.573,34.625,24.826,43.986c13.416,7.277,32.354,11.768,61.947,18.291
		c7.123,1.564,14.547,3.529,22.691,6.008c6.814,2.072,21,6.383,20.936,17.322c-0.016,2.813-1.193,5.889-3.078,8.021
		c-3.592,4.07-9.18,6.267-13.068,7.564c-6.506,2.17-12.904,3.684-19.021,4.498c-5.061,0.678-10.141,1.02-15.096,1.02
		c-3.23,0-6.479-0.145-9.646-0.436c-1.6-0.146-3.227-0.334-4.837-0.566c-7.729-1.111-14.157-2.943-19.649-5.604
		c-4.836-2.343-8.646-5.091-11.326-8.165c-1.651-1.896-2.893-4.029-3.924-5.881c-0.34-0.609-0.678-1.227-1.017-1.84
		c-0.263-0.477-0.521-0.953-0.784-1.43c-0.925-1.666-2.029-3.568-3.473-5.084c-2.914-3.063-7.393-4.816-12.283-4.816
		c-2.278,0-4.541,0.404-6.535,1.168c-4.462,1.711-7.957,5.025-9.843,9.332c-1.843,4.211-1.917,8.881-0.212,13.15
		c10.971,27.439,39.947,43.785,79.506,44.832c0.625,0.016,1.247,0.021,1.879,0.035c0.613,0.01,1.234,0.014,1.861,0.014
		c32.113,0,69.379-10.49,80.241-33.924C1231.676,219.536,1232.307,205.252,1226.131,193.092z"/>
</g>
<g>
	<path class="st0" d="M791.877,271.815c-9.94,0-18-8.061-18-18v-79.104c0-33.619-27.352-60.972-60.969-60.972
		c-33.616,0-60.968,27.353-60.968,60.972c0,33.617,27.352,60.967,60.968,60.967c0.078,0,0.155,0,0.232,0
		c2.553,0,10.521-0.479,16.872-2.705c9.388-3.281,19.651,1.658,22.938,11.041c3.284,9.385-1.656,19.652-11.041,22.938
		c-13.27,4.646-27.028,4.73-29.071,4.727c-53.438-0.037-96.896-43.52-96.896-96.967c0-53.469,43.5-96.971,96.968-96.971
		c53.47,0,96.969,43.502,96.969,96.971v79.103C809.877,263.756,801.82,271.815,791.877,271.815z"/>
</g>
<g>
	<path class="st1" d="M1646.502,270.815c-9.939,0-18-8.061-18-18v-79.104c0-33.619-27.352-60.972-60.969-60.972
		c-33.615,0-60.967,27.353-60.967,60.972c0,33.617,27.352,60.967,60.967,60.967c0.078,0,0.156,0.002,0.234,0.002
		c2.551,0,10.518-0.479,16.873-2.707c9.385-3.281,19.648,1.658,22.938,11.041c3.283,9.385-1.656,19.652-11.041,22.939
		c-13.268,4.645-27.014,4.723-29.072,4.727c-53.438-0.036-96.896-43.521-96.896-96.967c0-53.471,43.5-96.971,96.967-96.971
		c53.471,0,96.969,43.5,96.969,96.971v79.104C1664.502,262.758,1656.445,270.815,1646.502,270.815z"/>
</g>
<path class="st1" d="M2402.916,193.678c-8.74-17.199-28.896-28.16-67.408-36.646c-4.057-0.895-8.865-1.955-13.771-3.072
	c-6.447-1.473-13.363-3.093-20.25-4.984c-2.762-0.762-5.688-1.646-8.949-2.719c-0.393-0.129-0.781-0.254-1.176-0.381
	c-4.213-1.357-8.568-2.766-11.938-6.197c-2.037-2.076-3.029-4.607-2.879-7.326c0.188-3.293,2.045-6.604,5.102-9.084
	c1.516-1.229,3.211-2.289,5.188-3.246c6.57-3.182,14.082-4.664,21.223-5.795c1.939-0.311,3.904-0.568,5.836-0.773
	c3.125-0.334,6.295-0.496,9.688-0.496c3.428,0,7.104,0.17,11.238,0.52c6.912,0.588,12.242,1.711,17.83,3.762
	c7.117,2.611,12.98,6.548,18.137,12.168c3.771,4.109,5.412,8.281,11.756,8.281c0.473,0,0.953-0.02,1.426-0.061
	c1.592-0.137,3.082-0.377,4.434-0.719c4.393-1.105,8.258-4.189,10.605-8.465c1.125-2.045,1.727-4.234,1.783-6.512
	c0.027-1.084-0.055-2.271-0.252-3.645c-0.045-0.301-0.084-0.607-0.123-0.926c-0.125-0.998-0.256-2.027-0.549-2.816
	c-4.041-10.9-14.635-25.396-42.148-32.563c-9.875-2.567-20.674-3.871-32.094-3.871c-7.762,0-15.588,0.615-23.27,1.834
	c-37.221,5.896-60.752,24.556-61.41,48.688c-0.545,20.236,7.574,34.625,24.828,43.986c13.416,7.281,32.355,11.768,61.949,18.291
	c7.123,1.564,14.545,3.53,22.689,6.008c6.814,2.072,21,6.383,20.938,17.322c-0.02,2.813-1.195,5.889-3.08,8.021
	c-3.59,4.07-9.18,6.27-13.07,7.564c-6.506,2.17-12.902,3.684-19.02,4.498c-5.063,0.678-10.143,1.02-15.098,1.02
	c-3.229,0-6.479-0.145-9.646-0.436c-1.598-0.146-3.227-0.334-4.836-0.566c-7.729-1.11-14.158-2.942-19.652-5.602
	c-4.836-2.343-8.645-5.091-11.324-8.168c-1.65-1.896-2.893-4.029-3.926-5.88c-0.34-0.61-0.676-1.228-1.014-1.841
	c-0.262-0.477-0.521-0.952-0.787-1.43c-0.924-1.666-2.029-3.568-3.471-5.084c-2.914-3.063-7.395-4.816-12.283-4.816
	c-2.281,0-4.541,0.404-6.535,1.169c-4.463,1.711-7.957,5.024-9.842,9.331c-1.844,4.212-1.918,8.883-0.213,13.15
	c10.971,27.443,39.949,43.785,79.506,44.832c0.625,0.016,1.248,0.025,1.879,0.035c0.615,0.01,1.236,0.014,1.863,0.014
	c32.113,0,69.379-10.49,80.24-33.924C2408.461,220.122,2409.092,205.838,2402.916,193.678z"/>
</svg>
