<?xml version="1.0" encoding="utf-8"?>
<!-- Generator: Adobe Illustrator 16.0.0, SVG Export Plug-In . SVG Version: 6.00 Build 0)  -->
<!DOCTYPE svg PUBLIC "-//W3C//DTD SVG 1.1//EN" "http://www.w3.org/Graphics/SVG/1.1/DTD/svg11.dtd">
<svg version="1.1" id="zoo" xmlns="http://www.w3.org/2000/svg" xmlns:xlink="http://www.w3.org/1999/xlink" x="0px" y="0px"
	 width="2407.066px" height="352.621px" viewBox="0 0 2407.066 352.621" style="enable-background:new 0 0 2407.066 352.621;"
	 xml:space="preserve">
<style type="text/css">
<![CDATA[
	.st0{fill:#464646;}
	.st1{fill:#3EA1CC;}
]]>
</style>
<g>
	<path class="st0" d="M591.7,176.108c0-32.868-6.229-56.923-19.028-73.531c-12.097-15.692-29.863-23.988-51.38-23.988
		c-19.084,0-35.42,6.63-47.243,19.171l-4.366,4.629l-4.366-4.629c-11.822-12.541-28.158-19.171-47.24-19.171
		c-21.518,0-39.283,8.296-51.385,23.99c-12.803,16.604-19.024,40.659-19.024,73.529v72.063c0,10.367,8.434,18.801,18.801,18.801
		c10.364,0,18.799-8.434,18.799-18.801v-72.063c0-29.796,6.094-43.948,11.205-50.577c3.354-4.354,8.84-9.346,21.604-9.346
		c12.764,0,18.25,4.992,21.604,9.348c5.11,6.629,11.203,20.783,11.203,50.575v72.063c0,10.367,8.434,18.801,18.801,18.801
		c10.366,0,18.801-8.434,18.801-18.801v-72.063c0-29.798,6.095-43.95,11.205-50.577c3.354-4.354,8.842-9.346,21.604-9.346
		c12.766,0,18.253,4.992,21.604,9.348c5.111,6.629,11.205,20.783,11.205,50.575v72.063c0,10.367,8.438,18.801,18.804,18.801
		c10.362,0,18.8-8.434,18.8-18.801L591.7,176.108L591.7,176.108z"/>
</g>
<g>
	<path class="st0" d="M932.077,77.212c-17.871,0-35.328,4.997-50.485,14.45l-6.259,3.9l-2.547-6.922
		c-2.713-7.369-9.797-12.32-17.627-12.32c-10.365,0-18.8,8.435-18.8,18.802v76.924c-0.002,0.25-0.008,0.438-0.018,0.629
		l-0.009,0.279l0.009,0.279c0.009,0.188,0.016,0.378,0.018,0.563V333.82c0,10.36,8.435,18.8,18.8,18.8
		c10.366,0,18.801-8.438,18.801-18.8v-84.128l9.082,5.438c14.804,8.865,31.761,13.551,49.035,13.551
		c52.791,0,95.739-42.942,95.739-95.731C1027.816,120.162,984.868,77.212,932.077,77.212z M932.077,231.089
		c-31.502,0-57.571-25.627-58.117-57.127v-1.97v-0.054c0.546-31.501,26.617-57.13,58.117-57.13c32.06,0,58.142,26.084,58.142,58.146
		C990.218,205.011,964.136,231.089,932.077,231.089z"/>
</g>
<g>
	<path class="st1" d="M298.129,144.436l-9.828-17.037c-3.953-6.836-10.845-10.914-18.431-10.914c-4.64,0-9.146,1.524-13.037,4.425
		l-35.713,26.573c-5.15,3.846-8.203,9.268-8.594,15.266c-0.393,6,1.938,11.766,6.547,16.25l34.269,33.262
		c3.946,3.828,8.836,5.938,13.774,5.938c6.702,0,12.669-3.688,16.39-10.124l14.624-25.346
		C304.33,171.998,304.33,155.186,298.129,144.436z"/>
	<path class="st1" d="M83.816,207.916c0.391-6-1.929-11.767-6.546-16.248l-42.981-41.701c-3.937-3.826-8.827-5.938-13.756-5.938
		c-6.703,0-12.678,3.701-16.397,10.125l-0.484,0.844c-6.203,10.732-6.203,27.545,0,38.293L25.15,230.52
		c3.953,6.847,10.843,10.924,18.429,10.924c4.639,0,9.146-1.531,13.038-4.425l18.6-13.843
		C80.363,219.335,83.426,213.914,83.816,207.916z"/>
	<path class="st1" d="M98.127,179.729c4.86,4.722,11.829,7.424,19.085,7.438c5.938,0,11.64-1.828,16.084-5.143l113.6-84.558
		c10.306-7.671,13.469-22.949,7.048-34.072l-5.905-10.232c-6.205-10.719-20.773-19.141-33.17-19.141h-114.31
		c-12.391,0-26.959,8.422-33.162,19.141L43.041,95.377c-6.313,10.913-4.079,26.941,4.983,35.73L98.127,179.729z M78.521,97.736
		l10.336-17.482c4.897-8.304,17.193-15.316,26.833-15.316h83.306c10.491,0,20.538,4.603,23,8.728
		c2.147,3.614-1.119,11.896-8.703,17.575l-78.259,58.59c-3.228,2.438-7.477,3.766-11.968,3.766c-5.296,0-10.343-1.857-13.835-5.076
		L82.35,123.742C75.607,117.518,73.863,105.619,78.521,97.736z"/>
	<path class="st1" d="M203.267,189.043c-4.866-4.719-11.819-7.422-19.092-7.422c-5.921,0-11.631,1.813-16.083,5.125l-96.493,71.82
		c-10.468,7.797-14.826,20.575-9.92,29.093c4.584,7.937,17.896,14.152,30.286,14.152h114.313c12.403,0,26.966-8.423,33.151-19.151
		l10.226-17.688c6.304-10.92,4.069-26.95-4.978-35.729L203.267,189.043z M217.579,263.334l-0.803,1.356
		c-4.93,8.298-17.232,15.313-26.882,15.313h-78.642c-9.679,0-16.921-1.703-19.334-2.922c0.914-2.063,4.624-6.779,11.507-11.826
		l64.4-47.246c3.251-2.375,7.517-3.703,12.022-3.703c5.375,0,10.478,1.859,14.022,5.096l19.858,18.074
		C220.476,243.632,222.242,255.475,217.579,263.334z"/>
</g>
<path class="st1" d="M2200.432,77.984c-22.725,0-43.627,7.935-60.096,21.17v-4.528c0-9.94-8.059-18-18-18s-18,8.06-18,18v158.915
	c0,9.94,8.059,18,18,18s18-8.06,18-18v-79.457c0-33.141,26.959-60.1,60.096-60.1c9.941,0,18-8.061,18-18
	C2218.432,86.043,2210.375,77.984,2200.432,77.984z"/>
<path class="st1" d="M1446.525,172.072c0-52.039-42.34-94.377-94.385-94.377c-22.013,0-42.287,7.576-58.357,20.258V18.002
	c0-9.939-8.062-18-18-18c-9.94,0-18,8.061-18,18v152.531c-0.009,0.513-0.021,1.021-0.021,1.538c0,0.131,0.02,0.258,0.021,0.387v79.2
	c0,9.938,8.06,18,18,18c9.938,0,18-8.062,18-18v-80.356c0.415-31.834,26.428-57.604,58.357-57.604
	c32.188,0,58.376,26.183,58.386,58.362c0,0.004-0.002,0.011-0.002,0.016v79.251c0,9.938,8.061,18,18,18s18-8.062,18-18v-79.234
	C1446.523,172.085,1446.525,172.08,1446.525,172.072z"/>
<path class="st1" d="M1798.545,165.275c12.617-15.313,20.203-34.922,20.203-56.268c0-9.939-8.059-18.001-18-18.001
	c-9.939,0-18,8.062-18,18.001c0,28.592-22.922,51.91-51.354,52.594V21.385c0-9.939-8.061-18-18-18s-18,8.061-18,18v229.232
	c0,0.142,0.02,0.275,0.021,0.419c-0.012,0.555-0.021,1.105-0.021,1.665c0,9.938,8.061,18,18,18s18-8.062,18-18
	c0-29.02,23.605-52.622,52.625-52.622s52.627,23.604,52.627,52.622c0,9.938,8.059,18,18,18c9.938,0,18-8.062,18-18
	C1872.646,208.781,1840.527,172.227,1798.545,165.275z"/>
<g>
	<path class="st1" d="M1984.773,271.771c-3.213,0-6.438-0.153-9.678-0.473c-53.605-5.248-92.953-53.123-87.707-106.724
		c2.539-25.969,15.039-49.396,35.195-65.959c20.158-16.565,45.555-24.291,71.525-21.75c27.518,2.689,52.711,17.007,69.123,39.269
		c5.271,7.149,4.539,17.074-1.723,23.373L2013,188.3c-7.012,7.051-18.404,7.082-25.457,0.074c-7.049-7.01-7.084-18.406-0.072-25.455
		l36.273-36.49c-9.365-7.686-20.893-12.534-33.145-13.733c-16.396-1.604-32.438,3.272-45.164,13.733
		c-12.729,10.462-20.621,25.255-22.229,41.652c-3.313,33.844,21.531,64.072,55.385,67.387c16.396,1.603,32.438-3.274,45.164-13.733
		c7.684-6.313,19.021-5.199,25.334,2.479c6.313,7.681,5.201,19.021-2.479,25.334
		C2028.977,264.044,2007.314,271.771,1984.773,271.771z"/>
</g>
<g>
	<path class="st1" d="M1225.133,193.093c-8.74-17.199-28.896-28.159-67.409-36.647c-4.058-0.894-8.864-1.957-13.771-3.071
		c-6.447-1.474-13.363-3.095-20.25-4.985c-2.762-0.761-5.688-1.648-8.949-2.718c-0.392-0.129-0.782-0.256-1.176-0.381
		c-4.213-1.358-8.568-2.767-11.938-6.199c-2.034-2.075-3.028-4.608-2.878-7.325c0.188-3.293,2.045-6.604,5.102-9.084
		c1.515-1.229,3.212-2.289,5.188-3.246c6.569-3.181,14.082-4.664,21.226-5.795c1.938-0.31,3.901-0.57,5.836-0.773
		c3.125-0.334,6.295-0.497,9.687-0.497c3.43,0,7.104,0.172,11.24,0.521c6.911,0.588,12.244,1.711,17.83,3.762
		c7.118,2.611,12.979,6.547,18.136,12.166c3.771,4.111,5.412,8.281,11.755,8.281c0.476,0,0.953-0.02,1.428-0.061
		c1.591-0.139,3.08-0.377,4.433-0.719c4.392-1.104,8.258-4.189,10.606-8.465c1.124-2.045,1.727-4.232,1.781-6.51
		c0.029-1.086-0.053-2.273-0.252-3.646c-0.043-0.299-0.082-0.606-0.123-0.926c-0.125-0.996-0.255-2.026-0.548-2.815
		c-4.04-10.899-14.632-25.396-42.147-32.563c-9.875-2.566-20.674-3.871-32.096-3.871c-7.76,0-15.588,0.614-23.266,1.832
		c-37.225,5.896-60.753,24.558-61.41,48.69c-0.546,20.235,7.573,34.625,24.827,43.986c13.417,7.279,32.354,11.768,61.949,18.291
		c7.121,1.564,14.544,3.53,22.688,6.01c6.816,2.07,21,6.383,20.938,17.321c-0.018,2.813-1.195,5.89-3.079,8.021
		c-3.591,4.07-9.182,6.271-13.07,7.564c-6.506,2.17-12.902,3.684-19.019,4.498c-5.063,0.678-10.143,1.021-15.098,1.021
		c-3.23,0-6.479-0.146-9.646-0.438c-1.599-0.146-3.228-0.334-4.835-0.566c-7.729-1.109-14.159-2.941-19.652-5.602
		c-4.835-2.344-8.646-5.091-11.326-8.167c-1.648-1.897-2.892-4.028-3.923-5.88c-0.341-0.609-0.678-1.227-1.015-1.84
		c-0.264-0.479-0.522-0.953-0.787-1.432c-0.923-1.664-2.028-3.567-3.47-5.082c-2.916-3.063-7.396-4.817-12.284-4.817
		c-2.281,0-4.541,0.403-6.536,1.171c-4.462,1.71-7.957,5.021-9.842,9.33c-1.844,4.21-1.918,8.883-0.213,13.148
		c10.971,27.444,39.948,43.785,79.506,44.832c0.625,0.017,1.248,0.024,1.88,0.037c0.614,0.008,1.235,0.012,1.861,0.012
		c32.112,0,69.38-10.488,80.24-33.922C1230.678,219.537,1231.308,205.252,1225.133,193.093z"/>
</g>
<g>
	<path class="st0" d="M790.879,271.815c-9.939,0-18-8.062-18-18v-79.104c0-33.619-27.351-60.972-60.968-60.972
		c-33.618,0-60.968,27.353-60.968,60.972c0,33.617,27.35,60.967,60.968,60.967c0.078,0,0.155,0.002,0.233,0.002
		c2.552,0,10.519-0.479,16.87-2.706c9.389-3.281,19.65,1.657,22.938,11.041c3.284,9.385-1.657,19.651-11.041,22.938
		c-13.271,4.646-27.029,4.729-29.072,4.727c-53.438-0.037-96.896-43.521-96.896-96.967c0-53.472,43.5-96.972,96.968-96.972
		c53.469,0,96.967,43.5,96.967,96.972v79.102C808.879,263.757,800.819,271.815,790.879,271.815z"/>
</g>
<g>
	<path class="st1" d="M1645.504,270.816c-9.941,0-18-8.061-18-18v-79.104c0-33.618-27.35-60.972-60.967-60.972
		c-33.619,0-60.969,27.354-60.969,60.972c0,33.617,27.35,60.967,60.969,60.967c0.078,0,0.154,0.001,0.232,0.001
		c2.553,0,10.52-0.479,16.873-2.706c9.385-3.281,19.648,1.658,22.938,11.041c3.283,9.385-1.658,19.652-11.041,22.938
		c-13.27,4.646-27.016,4.723-29.074,4.727c-53.438-0.036-96.895-43.52-96.895-96.967c0-53.469,43.5-96.971,96.967-96.971
		c53.469,0,96.967,43.502,96.967,96.971v79.104C1663.504,262.757,1655.445,270.816,1645.504,270.816z"/>
</g>
<path class="st1" d="M2401.918,193.679c-8.738-17.199-28.896-28.159-67.408-36.647c-4.057-0.894-8.865-1.955-13.771-3.071
	c-6.449-1.474-13.365-3.093-20.25-4.985c-2.763-0.761-5.689-1.646-8.951-2.718c-0.392-0.129-0.781-0.256-1.174-0.381
	c-4.213-1.358-8.57-2.767-11.938-6.199c-2.037-2.075-3.031-4.608-2.879-7.325c0.188-3.293,2.045-6.604,5.104-9.084
	c1.514-1.229,3.211-2.289,5.188-3.246c6.568-3.181,14.082-4.664,21.225-5.795c1.938-0.31,3.902-0.568,5.836-0.773
	c3.125-0.334,6.295-0.497,9.688-0.497c3.428,0,7.104,0.172,11.24,0.521c6.91,0.588,12.242,1.711,17.83,3.762
	c7.117,2.611,12.979,6.548,18.135,12.166c3.771,4.111,5.412,8.283,11.756,8.283c0.473,0,0.953-0.021,1.426-0.063
	c1.594-0.139,3.082-0.377,4.434-0.719c4.393-1.104,8.258-4.189,10.605-8.465c1.125-2.045,1.729-4.232,1.783-6.51
	c0.027-1.086-0.055-2.273-0.252-3.646c-0.045-0.3-0.084-0.607-0.123-0.925c-0.125-0.998-0.256-2.028-0.549-2.817
	c-4.041-10.899-14.633-25.396-42.148-32.563c-9.875-2.566-20.674-3.871-32.094-3.871c-7.762,0-15.588,0.615-23.268,1.834
	c-37.225,5.896-60.752,24.556-61.41,48.688c-0.545,20.235,7.573,34.625,24.828,43.986c13.416,7.281,32.354,11.768,61.947,18.291
	c7.121,1.565,14.543,3.532,22.691,6.01c6.813,2.07,21,6.383,20.936,17.321c-0.016,2.813-1.193,5.89-3.08,8.021
	c-3.59,4.07-9.18,6.271-13.068,7.564c-6.508,2.17-12.904,3.684-19.021,4.498c-5.062,0.678-10.139,1.021-15.094,1.021
	c-3.234,0-6.48-0.146-9.65-0.438c-1.596-0.146-3.225-0.334-4.834-0.566c-7.729-1.109-14.156-2.941-19.65-5.602
	c-4.836-2.343-8.646-5.091-11.326-8.167c-1.65-1.897-2.895-4.028-3.924-5.879c-0.34-0.61-0.679-1.228-1.016-1.84
	c-0.262-0.479-0.521-0.953-0.786-1.433c-0.925-1.664-2.028-3.567-3.472-5.082c-2.914-3.063-7.393-4.817-12.282-4.817
	c-2.28,0-4.541,0.403-6.534,1.172c-4.464,1.71-7.957,5.021-9.846,9.33c-1.842,4.211-1.916,8.882-0.211,13.147
	c10.972,27.445,39.949,43.785,79.506,44.832c0.625,0.017,1.248,0.025,1.879,0.037c0.615,0.008,1.236,0.012,1.861,0.012
	c32.115,0,69.381-10.488,80.242-33.922C2407.463,220.123,2408.094,205.837,2401.918,193.679z"/>
</svg>
