<?xml version="1.0" encoding="utf-8"?>
<!-- Generator: Adobe Illustrator 16.0.0, SVG Export Plug-In . SVG Version: 6.00 Build 0)  -->
<!DOCTYPE svg PUBLIC "-//W3C//DTD SVG 1.1//EN" "http://www.w3.org/Graphics/SVG/1.1/DTD/svg11.dtd">
<svg version="1.1" id="zoo" xmlns="http://www.w3.org/2000/svg" xmlns:xlink="http://www.w3.org/1999/xlink" x="0px" y="0px"
	 width="2506px" height="390px" viewBox="65.417 453.138 2506 390" style="enable-background:new 65.417 453.138 2506 390;"
	 xml:space="preserve">
<style type="text/css">
<![CDATA[
	.st0{fill:#464646;}
	.st1{fill:#6834B2;}
]]>
</style>
<g>
	<path class="st0" d="M714.239,649.976c0-32.869-6.226-56.922-19.029-73.532c-12.096-15.692-29.863-23.988-51.379-23.988
		c-19.084,0-35.42,6.63-47.244,19.171l-4.366,4.629l-4.366-4.629c-11.823-12.541-28.159-19.171-47.241-19.171
		c-21.517,0-39.283,8.296-51.384,23.99c-12.803,16.606-19.025,40.659-19.025,73.53v72.063c0,10.367,8.433,18.801,18.8,18.801
		c10.365,0,18.799-8.434,18.799-18.801v-72.063c0-29.795,6.094-43.949,11.205-50.578c3.354-4.35,8.84-9.344,21.604-9.344
		c12.763,0,18.25,4.994,21.604,9.346c5.111,6.629,11.203,20.785,11.203,50.576v72.063c0,10.367,8.434,18.801,18.801,18.801
		c10.366,0,18.801-8.434,18.801-18.801v-72.063c0-29.797,6.094-43.951,11.205-50.578c3.354-4.35,8.841-9.344,21.604-9.344
		c12.765,0,18.252,4.994,21.604,9.346c5.111,6.629,11.205,20.785,11.205,50.576v72.063c0,10.367,8.435,18.801,18.801,18.801
		c10.365,0,18.8-8.434,18.8-18.801L714.239,649.976L714.239,649.976z"/>
</g>
<g>
	<path class="st0" d="M1054.616,551.081c-17.871,0-35.328,4.997-50.486,14.45l-6.258,3.902l-2.547-6.922
		c-2.713-7.369-9.797-12.321-17.627-12.321c-10.365,0-18.799,8.434-18.799,18.801v76.923c-0.002,0.25-0.008,0.439-0.016,0.629
		l-0.008,0.279l0.008,0.281c0.008,0.188,0.014,0.377,0.016,0.564v160.025c0,10.363,8.434,18.799,18.799,18.799
		c10.367,0,18.801-8.436,18.801-18.799v-84.129l9.082,5.439c14.803,8.865,31.76,13.551,49.035,13.551
		c52.791,0,95.74-42.945,95.74-95.734C1150.356,594.029,1107.407,551.081,1054.616,551.081z M1054.616,704.957
		c-31.502,0-57.572-25.627-58.117-57.127v-1.969v-0.053c0.545-31.5,26.617-57.129,58.117-57.129
		c32.059,0,58.141,26.084,58.141,58.143C1112.757,678.879,1086.675,704.957,1054.616,704.957z"/>
</g>
<g>
	<path class="st1" d="M398.667,622.304l-9.828-17.037c-3.953-6.836-10.844-10.914-18.43-10.914c-4.639,0-9.146,1.524-13.037,4.422
		l-35.714,26.575c-5.15,3.844-8.203,9.266-8.594,15.265c-0.392,6,1.938,11.765,6.547,16.25l34.269,33.262
		c3.946,3.828,8.836,5.938,13.774,5.938c6.702,0,12.669-3.688,16.389-10.124l14.624-25.343
		C404.869,649.865,404.869,633.053,398.667,622.304z"/>
	<path class="st1" d="M181.356,681.783c0.391-6-1.929-11.765-6.546-16.248l-42.981-41.7c-3.937-3.827-8.827-5.937-13.756-5.937
		c-6.703,0-12.678,3.702-16.397,10.124l-0.484,0.844c-6.203,10.733-6.203,27.544,0,38.293l21.498,37.231
		c3.953,6.844,10.843,10.921,18.429,10.921c4.639,0,9.146-1.531,13.038-4.422l18.6-13.842
		C177.903,693.204,180.966,687.782,181.356,681.783z"/>
	<path class="st1" d="M195.666,653.597c4.86,4.719,11.829,7.422,19.085,7.438c5.938,0,11.64-1.828,16.084-5.141l113.6-84.555
		c10.305-7.671,13.468-22.952,7.047-34.075l-5.905-10.233c-6.205-10.718-20.773-19.14-33.17-19.14h-114.31
		c-12.391,0-26.959,8.422-33.162,19.14l-24.356,42.215c-6.313,10.913-4.079,26.942,4.983,35.731L195.666,653.597z M176.059,571.605
		l10.336-17.483c4.897-8.304,17.193-15.318,26.833-15.318h83.306c10.491,0,20.538,4.601,23,8.726
		c2.148,3.616-1.119,11.897-8.703,17.576l-78.259,58.589c-3.228,2.438-7.477,3.766-11.968,3.766c-5.296,0-10.343-1.859-13.835-5.078
		l-26.881-24.778C173.146,591.385,171.403,579.487,176.059,571.605z"/>
	<path class="st1" d="M303.806,666.91c-4.867-4.718-11.82-7.421-19.092-7.421c-5.921,0-11.631,1.812-16.083,5.125l-96.493,71.821
		c-10.468,7.796-14.826,20.577-9.92,29.092c4.584,7.937,17.896,14.155,30.286,14.155h114.312c12.404,0,26.966-8.422,33.152-19.154
		l10.226-17.688c6.304-10.92,4.07-26.95-4.977-35.731L303.806,666.91z M318.117,741.201l-0.803,1.359
		c-4.929,8.296-17.232,15.311-26.881,15.311h-78.642c-9.679,0-16.921-1.702-19.334-2.921c0.914-2.062,4.624-6.78,11.507-11.827
		l64.4-47.246c3.251-2.375,7.517-3.703,12.022-3.703c5.375,0,10.477,1.859,14.022,5.094l19.859,18.076
		C321.015,721.5,322.781,733.343,318.117,741.201z"/>
</g>
<path class="st1" d="M2322.971,551.852c-22.724,0-43.627,7.934-60.096,21.17v-4.529c0-9.941-8.059-18-18-18s-18,8.059-18,18v158.915
	c0,9.941,8.059,18,18,18s18-8.059,18-18v-79.457c0-33.139,26.959-60.099,60.096-60.099c9.941,0,18-8.059,18-18
	S2332.913,551.852,2322.971,551.852z"/>
<path class="st1" d="M1569.064,645.94c0-52.039-42.34-94.376-94.383-94.376c-22.013,0-42.289,7.576-58.36,20.257v-79.95
	c0-9.941-8.059-18-18-18s-18,8.059-18,18v152.531c-0.008,0.513-0.02,1.023-0.02,1.538c0,0.131,0.017,0.257,0.02,0.387v79.2
	c0,9.941,8.059,18,18,18s18-8.059,18-18v-80.356c0.415-31.834,26.428-57.606,58.36-57.606c32.188,0,58.376,26.181,58.383,58.363
	c0,0.004-0.001,0.009-0.001,0.013v79.251c0,9.941,8.059,18,18,18s18-8.059,18-18V645.96
	C1569.063,645.953,1569.064,645.947,1569.064,645.94z"/>
<path class="st1" d="M1921.084,639.144c12.616-15.315,20.203-34.922,20.203-56.267c0-9.941-8.059-18-18-18s-18,8.059-18,18
	c0,28.59-22.922,51.911-51.353,52.592V495.254c0-9.941-8.059-18-18-18s-18,8.059-18,18v229.232c0,0.142,0.018,0.278,0.021,0.419
	c-0.011,0.554-0.021,1.108-0.021,1.665c0,9.941,8.059,18,18,18s18-8.059,18-18c0-29.017,23.607-52.623,52.624-52.623
	c29.019,0,52.627,23.606,52.627,52.623c0,9.941,8.059,18,18,18s18-8.059,18-18C1995.185,682.649,1963.066,646.095,1921.084,639.144z
	"/>
<g>
	<path class="st1" d="M2107.312,745.639c-3.211,0-6.437-0.156-9.675-0.473c-53.609-5.248-92.953-53.123-87.708-106.722
		c2.54-25.968,15.04-49.393,35.197-65.959c20.158-16.566,45.553-24.292,71.527-21.75c27.516,2.692,52.71,17.006,69.122,39.268
		c5.271,7.149,4.539,17.073-1.723,23.372l-48.508,48.793c-7.011,7.051-18.406,7.083-25.456,0.075
		c-7.05-7.01-7.084-18.406-0.075-25.456l36.276-36.489c-9.366-7.686-20.891-12.535-33.143-13.734
		c-16.398-1.604-32.437,3.273-45.164,13.734c-12.729,10.461-20.622,25.253-22.227,41.652c-3.312,33.844,21.533,64.073,55.384,67.387
		c16.396,1.6,32.436-3.277,45.163-13.736c7.683-6.311,19.025-5.2,25.335,2.479c6.312,7.681,5.201,19.023-2.479,25.335
		C2151.516,737.913,2129.853,745.639,2107.312,745.639z"/>
</g>
<g>
	<path class="st1" d="M1347.672,666.961c-8.74-17.199-28.899-28.16-67.409-36.648c-4.057-0.893-8.866-1.957-13.773-3.074
		c-6.448-1.471-13.364-3.092-20.25-4.986c-2.762-0.76-5.689-1.648-8.95-2.717c-0.391-0.129-0.782-0.255-1.175-0.381
		c-4.213-1.359-8.569-2.764-11.938-6.198c-2.036-2.077-3.031-4.61-2.878-7.327c0.187-3.293,2.045-6.604,5.1-9.084
		c1.514-1.229,3.211-2.289,5.189-3.246c6.569-3.18,14.082-4.665,21.223-5.795c1.939-0.309,3.903-0.57,5.836-0.775
		c3.125-0.334,6.294-0.497,9.686-0.497c3.428,0,7.104,0.171,11.24,0.521c6.911,0.587,12.244,1.711,17.83,3.761
		c7.118,2.612,12.981,6.546,18.136,12.167c3.77,4.111,5.412,8.282,11.755,8.282c0.473,0,0.953-0.02,1.426-0.061
		c1.59-0.137,3.081-0.377,4.431-0.718c4.392-1.104,8.258-4.19,10.609-8.464c1.124-2.045,1.724-4.235,1.782-6.509
		c0.029-1.085-0.053-2.276-0.252-3.647c-0.044-0.298-0.083-0.607-0.123-0.924c-0.125-0.998-0.255-2.029-0.548-2.818
		c-4.04-10.901-14.632-25.398-42.149-32.561c-9.875-2.569-20.673-3.872-32.094-3.872c-7.76,0-15.588,0.616-23.266,1.833
		c-37.222,5.897-60.753,24.555-61.41,48.691c-0.546,20.236,7.574,34.625,24.827,43.986c13.417,7.282,32.354,11.768,61.95,18.291
		c7.122,1.568,14.544,3.533,22.691,6.009c6.816,2.071,21,6.383,20.936,17.322c-0.016,2.815-1.196,5.889-3.08,8.021
		c-3.59,4.07-9.179,6.267-13.07,7.564c-6.506,2.17-12.904,3.684-19.019,4.498c-5.061,0.678-10.14,1.021-15.095,1.021
		c-3.233,0-6.48-0.147-9.649-0.437c-1.597-0.143-3.225-0.334-4.835-0.566c-7.729-1.11-14.159-2.942-19.653-5.602
		c-4.835-2.341-8.646-5.089-11.326-8.167c-1.651-1.897-2.891-4.029-3.923-5.878c-0.34-0.612-0.677-1.226-1.014-1.839
		c-0.262-0.478-0.523-0.954-0.787-1.431c-0.923-1.665-2.029-3.568-3.47-5.083c-2.915-3.062-7.393-4.817-12.284-4.817
		c-2.281,0-4.541,0.404-6.536,1.169c-4.462,1.71-7.957,5.024-9.842,9.332c-1.842,4.21-1.917,8.88-0.212,13.149
		c10.97,27.444,39.949,43.785,79.506,44.832c0.624,0.016,1.248,0.025,1.879,0.036c0.615,0.009,1.236,0.013,1.862,0.013
		c32.114,0,69.38-10.489,80.241-33.923C1353.217,693.404,1353.847,679.12,1347.672,666.961z"/>
</g>
<g>
	<path class="st0" d="M913.417,745.683c-9.941,0-18-8.059-18-18v-79.102c0-33.619-27.35-60.971-60.967-60.971
		c-33.618,0-60.968,27.352-60.968,60.971c0,33.617,27.35,60.967,60.968,60.967c0.078,0,0.155,0.001,0.234,0.001
		c2.551,0,10.518-0.48,16.872-2.706c9.386-3.283,19.651,1.658,22.938,11.041c3.284,9.383-1.658,19.652-11.041,22.938
		c-13.268,4.646-27.03,4.733-29.073,4.727c-53.437-0.037-96.897-43.521-96.897-96.967c0-53.47,43.5-96.971,96.968-96.971
		s96.967,43.501,96.967,96.971v79.102C931.417,737.625,923.358,745.683,913.417,745.683z"/>
</g>
<g>
	<path class="st1" d="M1768.043,744.684c-9.941,0-18-8.059-18-18v-79.102c0-33.619-27.35-60.971-60.967-60.971
		c-33.618,0-60.968,27.352-60.968,60.971c0,33.617,27.35,60.967,60.968,60.967c0.078,0,0.155,0.001,0.234,0.001
		c2.551,0,10.518-0.48,16.872-2.706c9.385-3.283,19.652,1.658,22.938,11.041c3.284,9.383-1.658,19.652-11.041,22.938
		c-13.268,4.645-27.014,4.723-29.073,4.727c-53.437-0.037-96.897-43.521-96.897-96.967c0-53.47,43.5-96.971,96.968-96.971
		s96.967,43.501,96.967,96.971v79.102C1786.043,736.626,1777.984,744.684,1768.043,744.684z"/>
</g>
<path class="st1" d="M2524.457,667.547c-8.74-17.199-28.899-28.16-67.409-36.648c-4.057-0.893-8.866-1.957-13.773-3.074
	c-6.448-1.471-13.364-3.092-20.25-4.986c-2.762-0.76-5.689-1.648-8.95-2.717c-0.391-0.129-0.782-0.255-1.175-0.381
	c-4.213-1.359-8.569-2.764-11.938-6.198c-2.036-2.077-3.031-4.61-2.878-7.327c0.187-3.293,2.045-6.604,5.1-9.084
	c1.514-1.229,3.211-2.289,5.189-3.246c6.569-3.18,14.082-4.665,21.223-5.795c1.939-0.309,3.903-0.57,5.836-0.775
	c3.125-0.334,6.294-0.497,9.686-0.497c3.428,0,7.104,0.171,11.24,0.521c6.911,0.587,12.244,1.711,17.83,3.761
	c7.118,2.612,12.981,6.546,18.136,12.167c3.77,4.111,5.412,8.282,11.755,8.282c0.473,0,0.953-0.02,1.426-0.061
	c1.59-0.137,3.081-0.377,4.431-0.718c4.392-1.104,8.258-4.19,10.609-8.464c1.124-2.045,1.724-4.235,1.782-6.509
	c0.029-1.085-0.053-2.276-0.252-3.647c-0.044-0.298-0.083-0.607-0.123-0.924c-0.125-0.998-0.255-2.029-0.548-2.818
	c-4.04-10.901-14.632-25.398-42.149-32.561c-9.875-2.569-20.673-3.872-32.094-3.872c-7.76,0-15.588,0.616-23.266,1.833
	c-37.222,5.897-60.753,24.555-61.41,48.691c-0.546,20.236,7.574,34.625,24.827,43.986c13.417,7.282,32.354,11.768,61.95,18.291
	c7.122,1.568,14.544,3.533,22.691,6.009c6.816,2.071,21,6.383,20.936,17.322c-0.016,2.815-1.196,5.889-3.08,8.021
	c-3.59,4.07-9.179,6.267-13.07,7.564c-6.506,2.17-12.904,3.684-19.019,4.498c-5.061,0.678-10.14,1.021-15.095,1.021
	c-3.233,0-6.48-0.147-9.649-0.437c-1.597-0.143-3.225-0.334-4.835-0.566c-7.729-1.11-14.159-2.942-19.653-5.602
	c-4.835-2.341-8.646-5.089-11.326-8.167c-1.651-1.897-2.891-4.029-3.923-5.878c-0.34-0.612-0.677-1.226-1.014-1.839
	c-0.262-0.478-0.523-0.954-0.787-1.431c-0.923-1.665-2.029-3.568-3.47-5.083c-2.915-3.062-7.393-4.817-12.284-4.817
	c-2.281,0-4.541,0.404-6.536,1.169c-4.462,1.71-7.957,5.024-9.842,9.332c-1.842,4.21-1.917,8.88-0.212,13.149
	c10.97,27.444,39.949,43.785,79.506,44.832c0.624,0.016,1.248,0.025,1.879,0.036c0.615,0.009,1.236,0.013,1.862,0.013
	c32.114,0,69.38-10.489,80.241-33.923C2530.002,693.99,2530.633,679.706,2524.457,667.547z"/>
</svg>
