<?xml version="1.0" encoding="utf-8"?>
<!-- Generator: Adobe Illustrator 16.0.0, SVG Export Plug-In . SVG Version: 6.00 Build 0)  -->
<!DOCTYPE svg PUBLIC "-//W3C//DTD SVG 1.1//EN" "http://www.w3.org/Graphics/SVG/1.1/DTD/svg11.dtd">
<svg version="1.1" id="zoo" xmlns="http://www.w3.org/2000/svg" xmlns:xlink="http://www.w3.org/1999/xlink" x="0px" y="0px"
	 width="2506px" height="390px" viewBox="0 0 2506 390" style="enable-background:new 0 0 2506 390;" xml:space="preserve">
<style type="text/css">
<![CDATA[
	.st0{fill:#939393;}
]]>
</style>
<g>
	<path class="st0" d="M654.638,213.484c0-32.868-6.226-56.922-19.028-73.531c-12.097-15.692-29.863-23.988-51.38-23.988
		c-19.084,0-35.42,6.63-47.243,19.171l-4.366,4.629l-4.366-4.629c-11.823-12.541-28.159-19.171-47.241-19.171
		c-21.517,0-39.283,8.296-51.384,23.99c-12.803,16.605-19.025,40.659-19.025,73.529v72.063c0,10.367,8.434,18.801,18.8,18.801
		c10.365,0,18.8-8.434,18.8-18.801v-72.063c0-29.795,6.094-43.948,11.205-50.577c3.354-4.351,8.84-9.345,21.604-9.345
		c12.763,0,18.25,4.994,21.604,9.347c5.11,6.629,11.203,20.784,11.203,50.575v72.063c0,10.367,8.434,18.801,18.801,18.801
		c10.366,0,18.801-8.434,18.801-18.801v-72.063c0-29.797,6.094-43.95,11.205-50.577c3.354-4.351,8.841-9.345,21.604-9.345
		c12.766,0,18.252,4.994,21.604,9.347c5.111,6.629,11.205,20.784,11.205,50.575v72.063c0,10.367,8.435,18.801,18.801,18.801
		c10.365,0,18.8-8.434,18.8-18.801L654.638,213.484L654.638,213.484z"/>
</g>
<g>
	<path class="st0" d="M995.015,114.59c-17.871,0-35.328,4.997-50.485,14.45l-6.259,3.901l-2.547-6.922
		c-2.713-7.369-9.797-12.32-17.627-12.32c-10.365,0-18.799,8.434-18.799,18.801v76.923c-0.002,0.25-0.008,0.438-0.016,0.629
		l-0.009,0.279l0.009,0.28c0.008,0.188,0.014,0.378,0.016,0.564v160.025c0,10.362,8.434,18.799,18.799,18.799
		c10.367,0,18.801-8.437,18.801-18.799v-84.129l9.082,5.438c14.804,8.865,31.761,13.551,49.035,13.551
		c52.791,0,95.74-42.944,95.74-95.733C1090.756,157.538,1047.806,114.59,995.015,114.59z M995.015,268.466
		c-31.502,0-57.572-25.627-58.117-57.127v-1.969v-0.054c0.545-31.5,26.617-57.129,58.117-57.129
		c32.06,0,58.142,26.084,58.142,58.144C1053.157,242.388,1027.075,268.466,995.015,268.466z"/>
</g>
<g>
	<path class="st0" d="M339.066,185.813l-9.827-17.037c-3.953-6.836-10.845-10.914-18.431-10.914c-4.639,0-9.146,1.524-13.037,4.423
		l-35.714,26.574c-5.149,3.845-8.203,9.267-8.594,15.266c-0.392,6,1.938,11.765,6.547,16.25l34.27,33.262
		c3.945,3.828,8.836,5.938,13.773,5.938c6.702,0,12.669-3.688,16.39-10.124l14.624-25.344
		C345.268,213.374,345.268,196.562,339.066,185.813z"/>
	<path class="st0" d="M121.756,245.292c0.392-6-1.929-11.766-6.546-16.248l-42.98-41.7c-3.938-3.827-8.827-5.937-13.757-5.937
		c-6.702,0-12.678,3.701-16.396,10.124l-0.484,0.844c-6.203,10.732-6.203,27.544,0,38.293l21.498,37.23
		c3.953,6.845,10.844,10.922,18.43,10.922c4.639,0,9.146-1.531,13.037-4.423l18.601-13.842
		C118.302,256.713,121.366,251.291,121.756,245.292z"/>
	<path class="st0" d="M136.066,217.105c4.859,4.72,11.829,7.422,19.085,7.438c5.938,0,11.64-1.828,16.084-5.142l113.6-84.555
		c10.305-7.671,13.468-22.952,7.047-34.075l-5.905-10.232c-6.205-10.718-20.772-19.141-33.17-19.141h-114.31
		c-12.391,0-26.959,8.423-33.162,19.141l-24.355,42.215c-6.313,10.913-4.079,26.942,4.982,35.731L136.066,217.105z M116.459,135.113
		l10.336-17.482c4.897-8.304,17.193-15.318,26.833-15.318h83.307c10.49,0,20.537,4.602,22.999,8.727
		c2.148,3.616-1.119,11.896-8.703,17.576l-78.259,58.589c-3.228,2.438-7.477,3.766-11.968,3.766c-5.296,0-10.343-1.859-13.835-5.078
		l-26.881-24.778C113.546,154.894,111.802,142.996,116.459,135.113z"/>
	<path class="st0" d="M244.206,230.419c-4.867-4.718-11.82-7.421-19.092-7.421c-5.921,0-11.631,1.812-16.083,5.125l-96.493,71.82
		c-10.468,7.797-14.826,20.577-9.92,29.093c4.584,7.937,17.896,14.154,30.286,14.154h114.312c12.404,0,26.966-8.422,33.152-19.153
		l10.226-17.688c6.304-10.92,4.07-26.95-4.977-35.73L244.206,230.419z M258.516,304.71l-0.803,1.358
		c-4.929,8.297-17.232,15.312-26.881,15.312h-78.642c-9.68,0-16.921-1.702-19.334-2.921c0.914-2.063,4.624-6.78,11.507-11.827
		l64.399-47.246c3.251-2.375,7.518-3.703,12.022-3.703c5.375,0,10.477,1.859,14.022,5.094l19.858,18.076
		C261.415,285.009,263.18,296.852,258.516,304.71z"/>
</g>
<path class="st0" d="M2263.371,115.36c-22.725,0-43.627,7.935-60.096,21.171v-4.529c0-9.941-8.061-18-18-18c-9.941,0-18,8.059-18,18
	v158.915c0,9.94,8.059,18,18,18c9.939,0,18-8.06,18-18V211.46c0-33.14,26.959-60.1,60.096-60.1c9.939,0,18-8.059,18-18
	C2281.371,123.42,2273.313,115.36,2263.371,115.36z"/>
<path class="st0" d="M1509.463,209.449c0-52.039-42.34-94.376-94.383-94.376c-22.012,0-42.289,7.575-58.359,20.257V55.38
	c0-9.941-8.059-18-18-18s-18,8.059-18,18v152.531c-0.008,0.513-0.02,1.022-0.02,1.538c0,0.131,0.016,0.257,0.02,0.387v79.2
	c0,9.94,8.059,18,18,18s18-8.06,18-18V208.68c0.414-31.834,26.428-57.605,58.359-57.605c32.188,0,58.377,26.181,58.383,58.362
	c0,0.004,0,0.009,0,0.014v79.251c0,9.94,8.059,18,18,18s18-8.06,18-18v-79.232C1509.463,209.462,1509.463,209.456,1509.463,209.449z
	"/>
<path class="st0" d="M1861.485,202.652c12.615-15.314,20.201-34.922,20.201-56.267c0-9.941-8.059-18-18-18c-9.939,0-18,8.059-18,18
	c0,28.59-22.922,51.911-51.352,52.592V58.763c0-9.94-8.059-18-18-18s-18,8.06-18,18v229.232c0,0.142,0.018,0.277,0.02,0.419
	c-0.01,0.554-0.02,1.107-0.02,1.665c0,9.94,8.059,18,18,18s18-8.06,18-18c0-29.018,23.607-52.623,52.623-52.623
	c29.02,0,52.627,23.605,52.627,52.623c0,9.94,8.059,18,18,18s18-8.06,18-18C1935.584,246.158,1903.465,209.604,1861.485,202.652z"/>
<g>
	<path class="st0" d="M2047.711,309.147c-3.211,0-6.436-0.155-9.674-0.473c-53.609-5.248-92.953-53.123-87.709-106.722
		c2.541-25.969,15.041-49.394,35.197-65.959c20.158-16.566,45.553-24.292,71.527-21.75c27.516,2.691,52.709,17.006,69.121,39.268
		c5.271,7.149,4.539,17.073-1.723,23.372l-48.508,48.793c-7.01,7.051-18.406,7.083-25.455,0.075
		c-7.051-7.01-7.084-18.406-0.076-25.456l36.277-36.489c-9.367-7.686-20.893-12.535-33.145-13.734
		c-16.396-1.604-32.436,3.273-45.164,13.734s-20.621,25.253-22.227,41.652c-3.313,33.844,21.533,64.072,55.385,67.387
		c16.395,1.6,32.436-3.277,45.162-13.736c7.684-6.311,19.025-5.199,25.336,2.479c6.311,7.681,5.201,19.022-2.48,25.335
		C2091.916,301.422,2070.252,309.147,2047.711,309.147z"/>
</g>
<g>
	<path class="st0" d="M1288.073,230.47c-8.74-17.199-28.9-28.16-67.41-36.647c-4.058-0.894-8.866-1.957-13.773-3.074
		c-6.448-1.472-13.364-3.092-20.25-4.986c-2.762-0.76-5.688-1.648-8.95-2.717c-0.391-0.129-0.781-0.255-1.175-0.381
		c-4.213-1.359-8.568-2.765-11.938-6.198c-2.036-2.077-3.031-4.61-2.878-7.327c0.187-3.293,2.045-6.604,5.1-9.084
		c1.514-1.229,3.211-2.289,5.189-3.246c6.568-3.18,14.082-4.665,21.223-5.795c1.938-0.309,3.902-0.57,5.836-0.774
		c3.125-0.334,6.294-0.497,9.686-0.497c3.429,0,7.104,0.171,11.24,0.521c6.911,0.587,12.244,1.711,17.83,3.761
		c7.118,2.612,12.981,6.547,18.135,12.167c3.771,4.111,5.412,8.282,11.756,8.282c0.473,0,0.953-0.02,1.426-0.061
		c1.59-0.138,3.082-0.377,4.432-0.719c4.393-1.104,8.258-4.189,10.609-8.464c1.123-2.045,1.723-4.234,1.781-6.509
		c0.029-1.085-0.053-2.275-0.252-3.646c-0.043-0.299-0.082-0.607-0.123-0.925c-0.125-0.997-0.256-2.028-0.549-2.817
		c-4.039-10.901-14.631-25.398-42.148-32.562c-9.875-2.568-20.673-3.872-32.095-3.872c-7.76,0-15.588,0.616-23.266,1.833
		c-37.222,5.897-60.753,24.556-61.41,48.691c-0.546,20.236,7.574,34.625,24.827,43.986c13.417,7.281,32.354,11.768,61.95,18.291
		c7.122,1.567,14.544,3.532,22.691,6.009c6.815,2.071,21,6.383,20.936,17.322c-0.016,2.814-1.197,5.889-3.081,8.021
		c-3.59,4.07-9.179,6.268-13.07,7.564c-6.506,2.17-12.903,3.684-19.019,4.498c-5.062,0.678-10.14,1.021-15.095,1.021
		c-3.233,0-6.48-0.146-9.649-0.437c-1.597-0.144-3.225-0.334-4.835-0.566c-7.729-1.11-14.159-2.942-19.652-5.602
		c-4.836-2.342-8.646-5.089-11.326-8.167c-1.651-1.897-2.892-4.029-3.924-5.878c-0.34-0.612-0.677-1.227-1.014-1.84
		c-0.262-0.478-0.522-0.953-0.787-1.431c-0.923-1.665-2.029-3.568-3.47-5.083c-2.915-3.062-7.393-4.817-12.284-4.817
		c-2.281,0-4.541,0.404-6.536,1.17c-4.462,1.71-7.957,5.023-9.842,9.331c-1.842,4.21-1.917,8.881-0.212,13.149
		c10.97,27.444,39.949,43.785,79.506,44.832c0.624,0.016,1.248,0.025,1.879,0.036c0.615,0.009,1.236,0.013,1.862,0.013
		c32.114,0,69.38-10.489,80.242-33.923C1293.617,256.913,1294.246,242.629,1288.073,230.47z"/>
</g>
<g>
	<path class="st0" d="M853.816,309.191c-9.94,0-18-8.059-18-18V212.09c0-33.619-27.35-60.971-60.967-60.971
		s-60.968,27.352-60.968,60.971c0,33.617,27.35,60.967,60.968,60.967c0.078,0,0.155,0.001,0.234,0.001
		c2.551,0,10.518-0.479,16.872-2.706c9.386-3.283,19.651,1.658,22.938,11.041c3.284,9.383-1.657,19.652-11.041,22.938
		c-13.268,4.646-27.029,4.732-29.072,4.727c-53.438-0.037-96.897-43.521-96.897-96.967c0-53.47,43.5-96.971,96.968-96.971
		c53.469,0,96.968,43.501,96.968,96.971v79.102C871.816,301.134,863.758,309.191,853.816,309.191z"/>
</g>
<g>
	<path class="st0" d="M1708.444,308.192c-9.941,0-18-8.059-18-18v-79.102c0-33.619-27.352-60.971-60.969-60.971
		s-60.967,27.352-60.967,60.971c0,33.617,27.35,60.967,60.967,60.967c0.078,0,0.156,0.001,0.234,0.001
		c2.551,0,10.518-0.479,16.873-2.706c9.385-3.283,19.65,1.658,22.938,11.041c3.283,9.383-1.658,19.652-11.041,22.938
		c-13.268,4.645-27.014,4.723-29.072,4.727c-53.438-0.037-96.898-43.521-96.898-96.967c0-53.47,43.5-96.971,96.969-96.971
		s96.967,43.501,96.967,96.971v79.102C1726.444,300.135,1718.383,308.192,1708.444,308.192z"/>
</g>
<path class="st0" d="M2464.858,231.056c-8.74-17.199-28.9-28.16-67.41-36.647c-4.057-0.894-8.865-1.957-13.773-3.074
	c-6.447-1.471-13.363-3.092-20.25-4.986c-2.762-0.76-5.688-1.647-8.949-2.717c-0.391-0.129-0.781-0.255-1.176-0.381
	c-4.213-1.359-8.568-2.764-11.938-6.198c-2.035-2.077-3.031-4.61-2.877-7.327c0.186-3.293,2.045-6.604,5.1-9.084
	c1.514-1.229,3.211-2.289,5.189-3.246c6.568-3.18,14.082-4.665,21.223-5.795c1.939-0.309,3.902-0.569,5.836-0.774
	c3.125-0.334,6.293-0.497,9.686-0.497c3.428,0,7.104,0.171,11.24,0.521c6.91,0.587,12.244,1.711,17.83,3.761
	c7.117,2.612,12.98,6.547,18.137,12.167c3.77,4.111,5.412,8.282,11.754,8.282c0.473,0,0.953-0.02,1.426-0.061
	c1.59-0.138,3.082-0.377,4.432-0.719c4.393-1.104,8.258-4.189,10.609-8.464c1.123-2.045,1.723-4.234,1.781-6.509
	c0.029-1.085-0.053-2.275-0.252-3.646c-0.045-0.298-0.084-0.607-0.123-0.924c-0.125-0.998-0.256-2.029-0.549-2.818
	c-4.039-10.901-14.631-25.398-42.148-32.562c-9.875-2.568-20.674-3.872-32.094-3.872c-7.76,0-15.588,0.616-23.266,1.834
	c-37.223,5.896-60.754,24.555-61.41,48.69c-0.547,20.236,7.574,34.625,24.826,43.986c13.418,7.282,32.354,11.768,61.951,18.291
	c7.121,1.567,14.543,3.533,22.689,6.009c6.816,2.071,21,6.383,20.938,17.322c-0.018,2.814-1.197,5.889-3.08,8.021
	c-3.592,4.07-9.18,6.268-13.07,7.564c-6.506,2.17-12.904,3.684-19.02,4.498c-5.061,0.678-10.141,1.021-15.096,1.021
	c-3.232,0-6.479-0.146-9.648-0.437c-1.598-0.144-3.225-0.334-4.834-0.566c-7.73-1.11-14.16-2.942-19.654-5.602
	c-4.834-2.341-8.646-5.089-11.326-8.167c-1.65-1.897-2.891-4.029-3.922-5.878c-0.34-0.612-0.678-1.227-1.014-1.839
	c-0.264-0.479-0.523-0.954-0.787-1.432c-0.924-1.665-2.029-3.568-3.471-5.083c-2.916-3.062-7.393-4.817-12.283-4.817
	c-2.281,0-4.541,0.404-6.537,1.17c-4.461,1.71-7.957,5.023-9.842,9.332c-1.842,4.21-1.916,8.88-0.211,13.148
	c10.969,27.444,39.947,43.785,79.506,44.832c0.623,0.016,1.248,0.025,1.879,0.036c0.615,0.009,1.236,0.013,1.861,0.013
	c32.113,0,69.381-10.489,80.24-33.923C2470.403,257.499,2471.033,243.215,2464.858,231.056z"/>
</svg>
