<?xml version="1.0" encoding="utf-8"?>
<!-- Generator: Adobe Illustrator 16.0.0, SVG Export Plug-In . SVG Version: 6.00 Build 0)  -->
<!DOCTYPE svg PUBLIC "-//W3C//DTD SVG 1.1//EN" "http://www.w3.org/Graphics/SVG/1.1/DTD/svg11.dtd">
<svg version="1.1" id="zoo" xmlns="http://www.w3.org/2000/svg" xmlns:xlink="http://www.w3.org/1999/xlink" x="0px" y="0px"
	 width="512px" height="512px" viewBox="0 0 512 512" style="enable-background:new 0 0 512 512;" xml:space="preserve">
<style type="text/css">
<![CDATA[
	.st0{fill:#D1D1D1;}
]]>
</style>
<g>
	<path class="st0" d="M496.976,217.727l-16.02-27.768c-6.442-11.142-17.673-17.788-30.038-17.788
		c-7.562,0-14.906,2.484-21.249,7.208l-58.208,43.313c-8.394,6.266-13.369,15.103-14.006,24.881
		c-0.64,9.778,3.158,19.174,10.67,26.483l55.854,54.213c6.432,6.238,14.4,9.68,22.45,9.68c10.923,0,20.647-6.014,26.711-16.502
		l23.835-41.307C507.084,262.648,507.084,235.247,496.976,217.727z"/>
	<path class="st0" d="M147.682,321.189c0.637-9.779-3.146-19.178-10.669-26.482L66.96,226.743
		c-6.417-6.238-14.387-9.676-22.42-9.676c-10.925,0-20.664,6.031-26.726,16.501l-0.789,1.375c-10.11,17.491-10.11,44.893,0,62.411
		l35.039,60.68c6.443,11.156,17.673,17.803,30.037,17.803c7.561,0,14.906-2.496,21.25-7.209l30.313-22.561
		C142.053,339.803,147.045,330.967,147.682,321.189z"/>
	<path class="st0" d="M171.004,275.25c7.92,7.691,19.279,12.096,31.105,12.123c9.678,0,18.972-2.98,26.214-8.381l185.15-137.811
		c16.796-12.502,21.952-37.408,11.486-55.537l-9.625-16.678c-10.112-17.469-33.857-31.195-54.062-31.195H174.967
		c-20.196,0-43.939,13.728-54.05,31.195l-39.695,68.805c-10.29,17.785-6.648,43.912,8.121,58.235L171.004,275.25z M139.047,141.615
		l16.847-28.493c7.98-13.534,28.021-24.968,43.732-24.968h135.776c17.099,0,33.474,7.5,37.486,14.224
		c3.5,5.894-1.824,19.39-14.186,28.646l-127.551,95.491c-5.261,3.974-12.187,6.138-19.505,6.138c-8.632,0-16.858-3.03-22.549-8.276
		l-43.813-40.386C134.3,173.853,131.459,154.462,139.047,141.615z"/>
	<path class="st0" d="M342.365,290.43c-7.931-7.689-19.264-12.096-31.117-12.096c-9.649,0-18.957,2.953-26.213,8.354
		L127.769,403.742c-17.063,12.709-24.165,33.539-16.169,47.418c7.471,12.936,29.168,23.068,49.361,23.068h186.313
		c20.216,0,43.95-13.727,54.032-31.217l16.668-28.83c10.273-17.797,6.632-43.924-8.113-58.234L342.365,290.43z M365.691,411.512
		l-1.309,2.215c-8.035,13.521-28.086,24.955-43.813,24.955H192.396c-15.776,0-27.579-2.773-31.512-4.762
		c1.489-3.361,7.536-11.051,18.754-19.275l104.962-77.004c5.3-3.871,12.252-6.035,19.594-6.035c8.76,0,17.077,3.029,22.854,8.303
		l32.365,29.461C370.413,379.402,373.293,398.703,365.691,411.512z"/>
</g>
</svg>
